<?xml version='1.0' encoding='UTF-8' standalone='no'?>
<!-- Created with Fritzing (http://www.fritzing.org/) -->
<svg xmlns:svg='http://www.w3.org/2000/svg' xmlns='http://www.w3.org/2000/svg' version='1.2' baseProfile='tiny' x='0in' y='0in' width='1.917in' height='0.63766in' viewBox='0 0 138.024 45.9115' >
<path stroke='#8c8c8c' stroke-width='2.16' stroke-linecap='round' stroke-linejoin='round' fill='none' d='M36.8338,34.7515L36.8338,44.8315' />
<path stroke='#8c8c8c' stroke-width='2.16' stroke-linecap='round' stroke-linejoin='round' fill='none' d='M44.0338,34.7515L44.0338,44.8315' />
<g partID='59350'><g transform='translate(33.313,0)' ><g xmlns="http://www.w3.org/2000/svg" id="breadboard">
 <g xmlns="http://www.w3.org/2000/svg">
  <rect xmlns="http://www.w3.org/2000/svg" x="9.6408" y="32.5368" fill="none" width="2.16" height="0.72" id="connector1pin"/>
  <rect xmlns="http://www.w3.org/2000/svg" x="2.4408" y="32.5368" fill="none" width="2.16" height="0.72" id="connector0pin"/>
  <g xmlns="http://www.w3.org/2000/svg" stroke-linecap="round" y1="48.266" stroke="#8C8C8C" y2="62.266" fill="none" x1="4.89" x2="4.89" stroke-width="2.16" id="connector0leg"/>
  <g xmlns="http://www.w3.org/2000/svg" stroke-linecap="round" y1="48.266" stroke="#8C8C8C" y2="62.266" fill="none" x1="14.89" x2="14.89" stroke-width="2.16" id="connector1leg"/>
  <rect xmlns="http://www.w3.org/2000/svg" x="2.4408" y="26.8315" fill="#8C8C8C" width="2.16" height="7.92"/>
  <rect xmlns="http://www.w3.org/2000/svg" x="9.6408" y="26.8315" fill="#8C8C8C" width="2.16" height="7.92"/>
  <ellipse xmlns="http://www.w3.org/2000/svg" fill="#0D0033" cx="7.08768" cy="26.8315" rx="7.08624" ry="4.96008"/>
  <rect xmlns="http://www.w3.org/2000/svg" y="25.8199" fill="#0D0033" width="14.1689" height="1.01088"/>
  <ellipse xmlns="http://www.w3.org/2000/svg" fill="#100040" cx="7.08768" cy="26.028" rx="7.08624" ry="4.96152"/>
  <ellipse xmlns="http://www.w3.org/2000/svg" fill="#0D0033" cx="7.08768" cy="22.5799" rx="7.08624" ry="4.96152"/>
  <rect xmlns="http://www.w3.org/2000/svg" y="5.03568" fill="#0D0033" width="14.1739" height="17.5442"/>
  <ellipse xmlns="http://www.w3.org/2000/svg" fill="#0D0033" cx="7.08768" cy="5.03496" rx="7.08624" ry="4.96152"/>
  <ellipse xmlns="http://www.w3.org/2000/svg" fill="#100040" cx="7.08768" cy="4.59576" rx="6.56352" ry="4.59576"/>
  <ellipse xmlns="http://www.w3.org/2000/svg" fill="#B2B2B2" cx="7.08768" cy="4.33008" rx="4.81104" ry="3.36816"/>
  <path xmlns="http://www.w3.org/2000/svg" fill="#D2EEFF" d="M1.38384,2.09016C0.51552,2.91384,0,3.93336,0,5.03568L0,7.776l0.94824,0l0,-0.26352l0.0108,-0.10008c0,0,0,0.05112,0,-0.13392c0,-0.33192,0.15768,-0.54504,0.42408,-0.65088c0.25704,-0.10224,0.23832,-1.91592,0.23832,-1.91592L1.38384,2.09016z"/>
  <path xmlns="http://www.w3.org/2000/svg" fill="#D2EEFF" d="M2.27736,4.33008c0,-0.59832,0.2232,-1.15704,0.612,-1.64304L1.38384,2.08728C0.83808,2.7576,0.52344,3.53088,0.52344,4.35672c0,0.82584,0.31536,1.60056,0.8604,2.27016l1.54152,-0.61344C2.51568,5.5188,2.27736,4.94352,2.27736,4.33008z"/>
  <rect xmlns="http://www.w3.org/2000/svg" y="7.4124" fill="#D2EEFF" width="0.95904" height="15.1668"/>
  <rect xmlns="http://www.w3.org/2000/svg" y="19.265" fill="#D2EEFF" width="0.95904" height="1.63152"/>
  <path xmlns="http://www.w3.org/2000/svg" fill="#D2EEFF" d="M0,26.0273l0,0.80208c0,0.90792,0.34992,1.75752,0.95904,2.48976l0,-0.80136l0,-4.18032l0,-0.80136C0.34992,24.2712,0,25.1201,0,26.0273z"/>
  <path xmlns="http://www.w3.org/2000/svg" fill="#D2EEFF" d="M0.95904,20.0887C0.34992,20.821,0,21.6713,0,22.5799s0.34992,1.7568,0.95904,2.48976L0.95904,20.0887z"/>
  <path xmlns="http://www.w3.org/2000/svg" fill="#D2EEFF" d="M0.95904,28.9354c0,0,0,-0.18432,0,-0.41688c0,-0.23328,0.04968,-1.0404,0.1296,-1.39968c0.1296,-0.594,0.40464,-1.00296,0.40464,-1.6308c0,-0.21168,-0.12024,-0.50976,-0.30024,-0.68976c-0.17784,-0.17784,-0.23832,-0.4572,-0.23832,-0.74808c0,-0.2916,0,-0.66384,0,-0.66384l-0.4104,0.01368l0.04464,5.11344L0.95904,28.9354z"/>
  <path xmlns="http://www.w3.org/2000/svg" opacity="0.35" d="M7.08768,1.12104c2.61936,0,4.74408,1.46592,4.80528,3.28896c0.00072,-0.02736,0.00792,-0.05328,0.00792,-0.07992c0,-1.86048,-2.15496,-3.36816,-4.81176,-3.36816c-2.65536,0,-4.81032,1.50768,-4.81032,3.36816c0,0.02664,0.00504,0.05256,0.00648,0.07992C2.34288,2.58696,4.46832,1.12104,7.08768,1.12104z"/>
  <path xmlns="http://www.w3.org/2000/svg" opacity="0.35" d="M9.15768,10.0498l0,7.78464l0,5.96376c0,0,0,3.05712,0,3.17952c0,0.12096,-0.04032,0.22248,-0.08928,0.3168c-0.05832,0.10944,-0.1908,0.28152,-0.1908,0.28152c1.88784,-0.40464,3.54744,-1.49544,4.40352,-2.718c0.05904,-0.0756,0.12096,-0.23616,0.14184,-0.30528c0.02088,-0.07128,0.02952,-0.1404,0.02952,-0.1404l0,-0.61416l0,-3.39696L13.4525,7.4844C12.5978,8.7084,11.0441,9.64656,9.15768,10.0498z"/>
  <path xmlns="http://www.w3.org/2000/svg" opacity="0.35" d="M13.343,27.7474c-0.06624,-0.17712,-0.25632,-0.40032,-0.25632,-0.40032c-0.85536,1.22256,-2.34792,1.87488,-4.23504,2.27664c0,0,0.1692,0.288,0.24408,0.53424c0.072,0.2448,0.06336,0.61488,0.06336,0.61488l0,0.8028c1.88712,-0.40248,3.4416,-1.3428,4.29552,-2.56464c0,0,0,-0.55872,0,-0.7056C13.4546,28.139,13.3992,27.8928,13.343,27.7474z"/>
  <path xmlns="http://www.w3.org/2000/svg" fill="#FFFFFF" opacity="0.2" d="M6.76944,29.2529c-0.01296,-0.17064,-0.04464,-0.3204,-0.08928,-0.45072c-3.01104,-0.13248,-5.4576,-1.70568,-5.95512,-3.74616c-0.09576,0.0756,-0.2052,0.17928,-0.27144,0.29592c-0.05256,0.09792,-0.1008,0.23904,-0.1404,0.3744c0.48096,2.2356,3.16008,3.96288,6.44976,4.07016C6.77736,29.646,6.78384,29.4653,6.76944,29.2529z"/>
  <path xmlns="http://www.w3.org/2000/svg" fill="#FFFFFF" opacity="0.2" d="M9.72864,8.62128c0.00504,-0.10872,-0.07992,-0.18432,-0.14904,-0.21384c-0.07344,-0.0324,-0.1944,-0.08064,-0.42336,-0.02016l-0.01944,0c-0.64296,0.15912,-1.32984,0.25128,-2.05056,0.25128c-3.39768,0,-6.1524,-1.92888,-6.1524,-4.30776c0,-0.06696,0.00936,-0.1332,0.01368,-0.19872c0,-0.00576,-0.00576,-0.00936,-0.00576,-0.01656c0,-0.10584,-0.04248,-0.24408,-0.13248,-0.25776C0.70632,3.8376,0.65592,3.92256,0.60552,4.03056C0.58032,4.08312,0.56088,4.15872,0.5472,4.24656C0.54504,4.25736,0.5436,4.27032,0.54216,4.28112C0.54,4.29264,0.54,4.30776,0.53856,4.32C0.52776,4.41072,0.52272,4.50288,0.52272,4.59504c0,2.53728,2.93904,4.59576,6.56352,4.59576c0.9108,0,1.76904,-0.13968,2.55456,-0.3744C9.7164,8.77824,9.72432,8.7156,9.72864,8.62128z"/>
  <path xmlns="http://www.w3.org/2000/svg" fill="#FFFFFF" d="M0.45432,25.3519c-0.05256,0.09792,-0.1008,0.23904,-0.1404,0.3744c0.11952,0.55584,0.37512,1.08144,0.74376,1.55808c0.01008,-0.06264,0.01944,-0.11808,0.03096,-0.16632c0.06408,-0.29232,0.162,-0.53712,0.2448,-0.78552c-0.28656,-0.396,-0.49824,-0.82512,-0.60696,-1.27584C0.62928,25.1309,0.52128,25.236,0.45432,25.3519z"/>
  <path xmlns="http://www.w3.org/2000/svg" fill="#FFFFFF" d="M0.93456,4.33008c0,-0.06696,0.01008,-0.1332,0.0144,-0.19872C0.94608,4.12488,0.94032,4.122,0.94032,4.11408c0,-0.10584,-0.04176,-0.24408,-0.13104,-0.25776C0.70632,3.8376,0.65592,3.92256,0.60552,4.03056C0.5796,4.08312,0.56088,4.15872,0.5472,4.24656C0.54504,4.25736,0.54216,4.27032,0.54144,4.28112C0.54,4.29264,0.53928,4.30776,0.53856,4.32C0.52776,4.41072,0.52272,4.50288,0.52272,4.59504c0,0.75888,0.26784,1.47312,0.73296,2.10456c0.04032,-0.02664,0.08064,-0.05256,0.12816,-0.072l0.37512,-0.14976C1.23696,5.84568,0.93456,5.11416,0.93456,4.33008z"/>
 </g>
</g>
</g></g><path stroke='#8c8c8c' stroke-width='2.16' stroke-linecap='round' stroke-linejoin='round' fill='none' d='M3.1752,24.1535L3.1752,38.5535' />
<path stroke='#8c8c8c' stroke-width='2.16' stroke-linecap='round' stroke-linejoin='round' fill='none' d='M10.3918,24.1535L10.3918,38.5535' />
<g partID='59710'><g transform='translate(0,6.27804)' ><g xmlns="http://www.w3.org/2000/svg" id="breadboard">
 <rect xmlns="http://www.w3.org/2000/svg" x="2.10168" y="10.6747" fill="none" width="2.16" height="0.72" id="connector0pin"/>
 <rect xmlns="http://www.w3.org/2000/svg" x="9.30168" y="10.6747" fill="none" width="2.16" height="0.72" id="connector1pin"/>
 <g xmlns="http://www.w3.org/2000/svg" stroke-linecap="round" y1="24.827" stroke="#8C8C8C" y2="44.827" fill="none" x1="4.41" x2="4.41" stroke-width="2.16" id="connector0leg"/>
 <g xmlns="http://www.w3.org/2000/svg" stroke-linecap="round" y1="24.827" stroke="#8C8C8C" y2="44.827" fill="none" x1="14.433" x2="14.433" stroke-width="2.16" id="connector1leg"/>
 <g xmlns="http://www.w3.org/2000/svg">
  <path xmlns="http://www.w3.org/2000/svg" fill="#8C8C8C" d="M2.8944,13.446C2.37024,12.9334,2.1492,12.3444,2.16,12.0456c0.01584,-0.954,0.144,-1.71432,0.97488,-2.56536c1.08,-1.08,2.06928,-2.07,2.06928,-2.07L3.67704,5.88312c-0.00288,0.00144,-0.99072,0.99,-2.07072,2.06928c-1.33128,1.30824,-1.62216,2.88864,-1.6056,4.09392c0.01296,1.08288,0.53784,2.09088,1.36584,2.92752c0.0792,0.05184,0.3528,0.558,0.49392,1.1448c0.15552,0.58968,0.24264,1.27728,0.2412,1.7568l0,0l2.16,0l0,0c-0.00144,-0.7092,-0.10872,-1.5228,-0.31248,-2.30472C3.7296,14.7881,3.47616,14.0544,2.8944,13.446z"/>
  <path xmlns="http://www.w3.org/2000/svg" fill="#8C8C8C" d="M11.9542,7.95096c-1.08072,-1.08,-2.06928,-2.07072,-2.06928,-2.07072l-1.52784,1.52856c0.00144,0.00144,0.99,0.99,2.06928,2.06928c0.82872,0.85248,0.95904,1.6128,0.97488,2.5668c0.01152,0.29952,-0.21024,0.88704,-0.7344,1.39968c-0.5832,0.60984,-0.8352,1.3428,-1.0548,2.124c-0.20304,0.78048,-0.31104,1.5948,-0.31392,2.30472l0.0036,0l0,0l2.16,0l0,0l-0.00072,0c-0.00144,-0.4788,0.0864,-1.16712,0.24192,-1.7568c0.1404,-0.58536,0.41184,-1.09224,0.4932,-1.14408c0.82872,-0.8388,1.35432,-1.84752,1.36512,-2.92752C13.5778,10.8403,13.2854,9.25992,11.9542,7.95096z"/>
  <path xmlns="http://www.w3.org/2000/svg" fill="#165696" d="M12.7663,8.62992c-0.50328,-0.61632,-1.18512,-1.47528,-1.18512,-2.82456L11.5812,1.71C11.5812,0.50976,10.9541,0,10.0663,0c-1.24488,0,-1.62,0.43488,-2.97,0.43488L6.46632,0.43488C5.11632,0.43488,4.7412,0,3.49632,0C2.60856,0,1.98144,0.50976,1.98144,1.71l0,4.09536c0,1.34928,-0.72072,2.11608,-1.18512,2.7648c-0.40464,0.56232,-0.72,1.3752,-0.72,1.78056c1.00512,-0.43488,1.8,-0.18,2.38464,0.40464c0.81,-1.21536,2.25,-2.32992,3.51,-2.32992l1.62,0c1.26,0,2.7,1.11528,3.51,2.32992c0.58464,-0.58464,1.3788,-0.83952,2.38464,-0.40464C13.4863,9.94536,13.3294,9.31968,12.7663,8.62992z"/>
  <path xmlns="http://www.w3.org/2000/svg" opacity="0.16" d="M13.4863,10.35c0,-0.40464,-0.15984,-1.03104,-0.72,-1.7208c-0.50328,-0.61632,-1.18512,-1.47528,-1.18512,-2.82456L11.5812,1.71c0,-0.62712,-0.17352,-1.06128,-0.4644,-1.33488c-0.00216,0.02016,-0.01512,0.04176,-0.01512,0.0648c0,0.20232,0.15912,0.38232,0.20232,0.60768c0.05328,0.26856,-0.06768,0.72,-0.27,1.10232c-0.20232,0.38232,-0.72,1.19232,-0.72,1.91232c0,0.83016,0.15768,1.59768,0.38232,2.13768c0.21384,0.51264,0.60768,1.17,1.14768,1.68768c0.54,0.51768,0.72,1.14768,0.76464,1.39536c0.04464,0.24768,-0.11016,0.42768,-0.42768,0.58464c-0.31536,0.15696,-0.8784,0.11232,-1.12464,0.02232c-0.24912,-0.09,-0.81,-0.58464,-1.05984,-0.9c-0.24768,-0.31536,-0.51768,-0.85536,-0.9,-1.30464c-0.36,-0.42336,-1.17,-1.01016,-2.25,-1.01016S4.7088,7.41528,4.1688,7.95528s-0.92232,1.23984,-1.12464,1.44c-0.20232,0.20232,-0.47232,0.42984,-0.74232,0.47232c-0.27,0.04464,-0.54,-0.09,-0.76464,-0.09c-0.18576,0,-0.3564,0.10296,-0.5508,0.36216c0.58752,-0.01656,1.08,0.22104,1.47456,0.6156c0.81,-1.21536,2.25,-2.32992,3.51,-2.32992l1.62,0c1.26,0,2.7,1.11528,3.51,2.32992C11.6863,10.17,12.4805,9.91584,13.4863,10.35z"/>
  <path xmlns="http://www.w3.org/2000/svg" fill="#FFFFFF" opacity="0.3" d="M4.05216,1.44432c0,0.37008,-0.53136,0.75384,-0.75456,0.75384c-0.40464,0,-0.64656,-0.41256,-0.64656,-0.82152c0,-0.40464,0.3276,-0.73512,0.73512,-0.73512C3.7908,0.64224,4.05216,1.03896,4.05216,1.44432z"/>
  <path xmlns="http://www.w3.org/2000/svg" fill="#FFFFFF" opacity="0.2" d="M0.91728,9.31968c0,-0.19512,0.05976,-0.43488,0.19512,-0.61488c0.18576,-0.24768,0.5904,-0.64512,0.77976,-0.91512c0.21024,-0.29952,0.28512,-0.56952,0.33048,-0.82512C2.2608,6.7572,2.41128,6.51456,2.56752,6.51456s0.30024,0.24984,0.30024,0.49536c0,0.24552,-0.072,0.55512,-0.25488,0.85536c-0.19512,0.31536,-0.52488,0.59976,-0.76464,0.79488c-0.24336,0.19656,-0.40608,0.43416,-0.46584,0.58464c-0.03888,0.10008,-0.13536,0.23976,-0.28512,0.23976C0.93384,9.48456,0.91728,9.4068,0.91728,9.31968z"/>
  <path xmlns="http://www.w3.org/2000/svg" fill="#FFFFFF" opacity="0.2" d="M8.71704,0.90504c0,-0.31968,0.31536,-0.46512,0.56952,-0.49536c0.38952,-0.04464,0.69048,-0.09,0.96048,-0.09s0.47952,0.05256,0.47952,0.21024c0,0.15768,-0.25776,0.19512,-0.49536,0.19512s-0.62928,0.08208,-0.80928,0.14976c-0.18,0.06984,-0.25488,0.30024,-0.43488,0.30024C8.82216,1.17504,8.71704,1.0548,8.71704,0.90504z"/>
 </g>
</g>
</g></g><g partID='59740'><g transform='translate(67.8,7.56576)' ><g xmlns="http://www.w3.org/2000/svg" id="breadboard">
 <g xmlns="http://www.w3.org/2000/svg">
  <path xmlns="http://www.w3.org/2000/svg" fill="#8C8C8C" d="M2.8368,8.80128c-0.00144,0.00144,-0.00144,0.00144,-1.21608,1.21608c-0.73368,0.71568,-1.20744,1.60128,-1.40112,2.61288C0.01512,13.644,0.00288,14.7845,0,16.38l0,14.4l2.16,0l0,-14.4L2.15928,16.38C2.1564,14.8054,2.1888,13.752,2.33424,13.0637c0.15408,-0.6912,0.33192,-1.02024,0.81288,-1.51992c1.21608,-1.21464,1.21608,-1.21536,1.21608,-1.21536L2.8368,8.80128z"/>
  <path xmlns="http://www.w3.org/2000/svg" fill="#8C8C8C" d="M16.5586,16.3793L16.5586,16.3793c-0.00216,-1.5948,-0.0144,-2.73528,-0.21888,-3.74904c-0.1944,-1.01088,-0.66888,-1.8972,-1.40256,-2.6136c-1.21392,-1.21464,-1.21392,-1.21464,-1.21392,-1.21536l-1.52712,1.52856c0,0,0,0,1.21464,1.21464c0.48168,0.49968,0.65952,0.82872,0.8136,1.51992c0.14544,0.68904,0.17784,1.74168,0.17496,3.3156l0.00432,0L14.4,16.38l0,14.4l2.16,0l0,-14.4L16.5586,16.3793z"/>
  <circle xmlns="http://www.w3.org/2000/svg" fill="#CC7720" cx="8.28" cy="6.5052" r="6.5052"/>
  <path xmlns="http://www.w3.org/2000/svg" d="M8.28,1.85976c1.3788,0,2.71728,-0.16704,4.00392,-0.4752C11.1787,0.52056,9.792,0,8.28,0C6.768,0,5.38128,0.52056,4.27608,1.38456C5.562,1.69272,6.9012,1.85976,8.28,1.85976z"/>
  <path xmlns="http://www.w3.org/2000/svg" fill="#CC7720" d="M1.98,8.08056c0.0972,0.35208,-0.04536,0.5184,-0.20232,0.76464C1.62,9.09288,1.40904,9.2376,1.10232,9.6552c-0.24768,0.33768,-0.38088,0.68256,-0.49536,1.08c-0.11376,0.39744,-0.0216,0.67536,-0.0216,0.67536l1.84464,1.28232c0,0,0.18504,-0.07488,0.3456,-0.25632c0.10512,-0.11808,0.34344,-0.31896,0.4644,-0.44064c0.24768,-0.24768,0.40464,-0.30168,0.67464,-0.30168c0.28296,0,0.44568,0.0036,0.71568,0.19656c0.30456,0.21816,1.47528,-1.02024,1.47528,-1.02024L3.51072,9.1152l-1.15488,-1.40976C2.35512,7.70544,1.8828,7.72776,1.98,8.08056z"/>
  <path xmlns="http://www.w3.org/2000/svg" fill="#CC7720" d="M14.58,8.08056c-0.0972,0.35208,0.04464,0.5184,0.2016,0.76464c0.1584,0.24768,0.36936,0.3924,0.67536,0.81c0.24768,0.33768,0.3816,0.68256,0.49536,1.08c0.1116,0.39744,0.02016,0.67536,0.02016,0.67536l-1.84464,1.28232c0,0,-0.18432,-0.07488,-0.3456,-0.25632c-0.10512,-0.11808,-0.34344,-0.31896,-0.4644,-0.44064c-0.2484,-0.24768,-0.40464,-0.30168,-0.67536,-0.30168c-0.28224,0,-0.44568,0.0036,-0.71568,0.19656c-0.30456,0.21816,-1.47528,-1.02024,-1.47528,-1.02024l2.59488,-1.75536l1.15488,-1.40976C14.2049,7.70544,14.6765,7.72776,14.58,8.08056z"/>
  <path xmlns="http://www.w3.org/2000/svg" opacity="0.1" d="M13.1904,11.8807c-0.22104,-0.4464,-0.94968,-1.01016,-1.37808,-1.01016c-0.42768,0,-2.0916,0.31464,-2.8116,0.31464s-2.47536,-0.36,-3.0384,-0.36c-0.60192,0,-1.21536,0.09,-1.6416,0.22464c-0.38592,0.12168,-0.77976,0.27,-1.22976,0.94464c-0.11448,0.17208,-0.19152,0.2844,-0.2412,0.3672c0.1188,-0.11736,0.29088,-0.26784,0.39096,-0.3672c0.24768,-0.24768,0.40464,-0.30168,0.67464,-0.30168c0.28296,0,0.44568,0.0036,0.71568,0.19656l0.00072,0c1.0404,0.70632,2.29608,1.12032,3.64896,1.12032s2.60856,-0.41328,3.64824,-1.12032l0.00072,0c0.27,-0.19368,0.43488,-0.19656,0.71568,-0.19656C12.8657,11.6935,13.0111,11.7353,13.1904,11.8807z"/>
  <path xmlns="http://www.w3.org/2000/svg" opacity="0.1" d="M14.3338,9.22032c0.29016,0.13536,1.22688,0.65952,1.5768,1.38816c-0.10512,-0.34488,-0.23472,-0.65232,-0.45576,-0.95256c-0.30672,-0.4176,-0.51768,-0.56232,-0.67536,-0.81c-0.14904,-0.23544,-0.28008,-0.40176,-0.20592,-0.72216c0.13248,-0.5184,0.21096,-1.0584,0.21096,-1.61784c0,-1.1664,-0.3132,-2.25792,-0.85032,-3.20472c0.04464,0.23184,0.07416,0.46224,0.07416,0.68472c0,0.68976,-0.11808,1.75176,-0.198,2.39112c-0.072,0.56448,-0.35568,1.05912,-0.35568,1.73376C13.4554,8.67312,14.1595,9.1404,14.3338,9.22032z"/>
  <path xmlns="http://www.w3.org/2000/svg" fill="#FFFFFF" opacity="0.55" d="M6.75,1.0224C6.30864,1.01448,5.94648,1.20456,5.94288,1.44504C5.94144,1.54872,6.01632,1.64304,6.12936,1.7208c0.34488,0.04392,0.69264,0.07704,1.04328,0.1008c0.21672,-0.07488,0.36936,-0.198,0.37224,-0.3492C7.54776,1.23048,7.1928,1.0296,6.75,1.0224z"/>
 </g>
</g>
</g></g><g partID='59880'><g transform='translate(106,8.39077)' ><g xmlns="http://www.w3.org/2000/svg" id="breadboard">
 <rect xmlns="http://www.w3.org/2000/svg" x="14.922" fill="none" y="25.53" width="2.16" height="3.251" id="connector0pin"/>
 <rect xmlns="http://www.w3.org/2000/svg" x="0.661" fill="none" y="17.894" width="2.881" height="2.16" id="connector2pin"/>
 <rect xmlns="http://www.w3.org/2000/svg" x="28.415" fill="none" y="17.762" width="3.076" height="2.159" id="connector1pin"/>
 <rect xmlns="http://www.w3.org/2000/svg" x="14.922" fill="none" y="25.621" width="2.16" height="3.16" id="connector0terminal"/>
 <rect xmlns="http://www.w3.org/2000/svg" x="29.331" fill="none" y="17.762" width="2.16" height="2.159" id="connector1terminal"/>
 <rect xmlns="http://www.w3.org/2000/svg" x="0.661" fill="none" y="17.894" width="2.16" height="2.16" id="connector2terminal"/>
 <g xmlns="http://www.w3.org/2000/svg" id="legs">
  <g xmlns="http://www.w3.org/2000/svg" id="pin0">
   <rect xmlns="http://www.w3.org/2000/svg" x="2.91" fill="#8C8C8C" y="16.382" width="1.439" height="4.89" id="rect10"/>
   <rect xmlns="http://www.w3.org/2000/svg" x="0.477" fill="#8C8C8C" y="17.822" width="3.679" height="2.16" id="rect14"/>
  </g>
  <g xmlns="http://www.w3.org/2000/svg" id="pin2">
   <rect xmlns="http://www.w3.org/2000/svg" x="27.56" fill="#8C8C8C" y="16.235" width="1.441" height="4.915" id="rect8"/>
   <rect xmlns="http://www.w3.org/2000/svg" x="27.754" fill="#8C8C8C" y="17.676" width="3.699" height="2.16" id="rect16"/>
  </g>
  <g xmlns="http://www.w3.org/2000/svg" id="legs_1_">
   <g xmlns="http://www.w3.org/2000/svg" id="pin0_1_">
    <rect xmlns="http://www.w3.org/2000/svg" x="26.748" fill="#8C8C8C" y="16.295" width="2.272" height="4.891" id="rect10_1_"/>
    <rect xmlns="http://www.w3.org/2000/svg" x="27.774" fill="#8C8C8C" y="17.584" width="3.679" height="2.16" id="rect14_1_"/>
   </g>
   <g xmlns="http://www.w3.org/2000/svg" id="pin2_1_">
    <rect xmlns="http://www.w3.org/2000/svg" x="2.928" fill="#8C8C8C" y="16.416" width="2.277" height="4.916" id="rect8_1_"/>
    <rect xmlns="http://www.w3.org/2000/svg" x="0.477" fill="#8C8C8C" y="17.73" width="3.699" height="2.16" id="rect16_1_"/>
   </g>
   <g xmlns="http://www.w3.org/2000/svg" id="pin1_1_">
    <rect xmlns="http://www.w3.org/2000/svg" x="14.915" fill="#8C8C8C" y="26.447" width="2.16" height="2.24" id="rect18_1_"/>
   </g>
  </g>
 </g>
 <rect xmlns="http://www.w3.org/2000/svg" x="13.64" fill="#8C8C8C" y="6.261" width="4.465" height="3.06" id="rect12"/>
 <path xmlns="http://www.w3.org/2000/svg" fill="#B78F2A" d="M27.56,14.796c1.021,4.261,-0.812,10.136,-7.312,12.761S6.653,25.799,4.935,21.827s-2,-4.625,-2,-4.625L26.06,8.827C26.06,8.827,26.54,10.535,27.56,14.796z"/>
 <circle xmlns="http://www.w3.org/2000/svg" stroke="#DBAA21" cx="14.531" fill="#D8B45D" cy="13.113" stroke-width="1" r="11.75"/>
 <path xmlns="http://www.w3.org/2000/svg" fill="#AAAAAA" d="M6.689,5c-4.328,4.321,-4.149,10.88,0,15.031c4.151,4.148,10.879,4.148,15.028,0L6.689,5z"/>
 <circle xmlns="http://www.w3.org/2000/svg" cx="13.812" fill="#8C8C8C" cy="11.072" r="2.625"/>
 <path xmlns="http://www.w3.org/2000/svg" fill="#8C8C8C" d="M13.822,0.384C7.706,0.377,3.196,5.143,3.196,11.014c0,5.868,4.758,10.624,10.626,10.624L13.822,0.384z"/>
 <circle xmlns="http://www.w3.org/2000/svg" cx="13.593" fill="#BCA061" cy="10.958" r="2.438"/>
 <polygon xmlns="http://www.w3.org/2000/svg" fill="#BCA061" points="11.437,12.076,15.891,10.176,14.453,6.755,10.107,8.927"/>
 <circle xmlns="http://www.w3.org/2000/svg" cx="12.31" fill="#FFD56C" cy="7.896" r="2.438"/>
 <line xmlns="http://www.w3.org/2000/svg" stroke="#DBAA21" y1="6.303" fill="none" y2="9.451" x1="14.154" x2="10.435" stroke-width="0.5"/>
 <g xmlns="http://www.w3.org/2000/svg" id="pin1_2_">
  <rect xmlns="http://www.w3.org/2000/svg" x="14.915" fill="#8C8C8C" y="26.53" width="2.16" height="2.24" id="rect18_2_"/>
 </g>
 <g xmlns="http://www.w3.org/2000/svg" id="pin1_3_">
  <polygon xmlns="http://www.w3.org/2000/svg" fill="#AAAAAA" points="14.005,25.357,16.165,25.357,17.076,26.747,14.916,26.747" id="rect18_3_"/>
 </g>
 <rect xmlns="http://www.w3.org/2000/svg" x="14.005" fill="#AAAAAA" y="21.399" width="2.16" height="3.958"/>
</g>
</g></g></svg>