<?xml version='1.0' encoding='UTF-8' standalone='no'?>
<!-- Created with Fritzing (http://www.fritzing.org/) -->
<svg xmlns:svg='http://www.w3.org/2000/svg' xmlns='http://www.w3.org/2000/svg' version='1.2' baseProfile='tiny' x='0in' y='0in' width='2.42149in' height='0.404507in' viewBox='0 0 174.347 29.1245' >
<path stroke='#8c8c8c' stroke-width='2.0952' stroke-linecap='round' stroke-linejoin='round' fill='none' d='M39.4089,24.6991L38.3613,24.6991' />
<path stroke='#8c8c8c' stroke-width='2.0952' stroke-linecap='round' stroke-linejoin='round' fill='none' d='M66.1187,24.6991L67.1663,24.6991' />
<g partID='57430'><g transform='translate(37.3137,21.0667)' ><g xmlns="http://www.w3.org/2000/svg" id="breadboard">
 <rect xmlns="http://www.w3.org/2000/svg" x="0.36" y="2.5848" fill="none" width="0.72" height="0.72" id="connector0pin"/>
 <rect xmlns="http://www.w3.org/2000/svg" x="29.8202" y="2.5848" fill="none" width="0.72" height="0.72" id="connector1pin"/>
 <line xmlns="http://www.w3.org/2000/svg" stroke-linecap="round" y1="3.6324" stroke="#8C8C8C" y2="3.6324" fill="none" x1="1.0476" x2="2.0952" stroke-width="2.0952" id="connector0leg"/>
 <line xmlns="http://www.w3.org/2000/svg" stroke-linecap="round" y1="3.6324" stroke="#8C8C8C" y2="3.6324" fill="none" x1="29.8526" x2="28.805" stroke-width="2.0952" id="connector1leg"/>
 <path xmlns="http://www.w3.org/2000/svg" stroke="#8C8C8C" fill="none" stroke-width="2.0952" d="M1.0476,3.6324l28.3666,0"/>
 <path xmlns="http://www.w3.org/2000/svg" fill="#D9B477" id="body" d="M10.2478,0.49536c-0.36,-0.1656,-0.9792,-0.2952,-1.3752,-0.2952l-1.9872,0c-0.396,0,-0.72,0.324,-0.72,0.72l0,5.35608c0,0.39672,0.324,0.72,0.72,0.72l1.9872,0c0.396,0,1.0152,-0.13608,1.3752,-0.2952l0.072,-0.03528c0.36,-0.1656,0.9792,-0.2952,1.3752,-0.2952l7.1856,0c0.39672,0,1.01448,0.13608,1.37448,0.2952l0.07272,0.03528c0.36,0.1656,0.97776,0.2952,1.3752,0.2952l1.9872,0c0.39744,0,0.72,-0.32328,0.72,-0.72L24.4102,0.92016c0,-0.396,-0.32256,-0.72,-0.72,-0.72l-1.9872,0c-0.39744,0,-1.0152,0.1368,-1.3752,0.2952l-0.07272,0.036c-0.36,0.1656,-0.97776,0.2952,-1.37448,0.2952l-7.1856,0c-0.396,0,-1.0152,-0.1368,-1.3752,-0.2952L10.2478,0.49536z"/>
 <rect xmlns="http://www.w3.org/2000/svg" x="22.019" y="0.19368" fill="#ad9f4e" width="0.70272" height="6.79536" id="gold_band"/>
 <rect xmlns="http://www.w3.org/2000/svg" x="16.1726" fill="#c40808" y="0.82656" width="1.8504" height="5.5368" id="band_rd_multiplier"/>
 <rect xmlns="http://www.w3.org/2000/svg" x="12.4726" fill="#c40808" y="0.82656" width="1.8504" height="5.5368" id="band_2_nd"/>
 <path xmlns="http://www.w3.org/2000/svg" fill="#c40808" id="band_1_st" d="M10.6286,0.63936c-0.1152,-0.036,-0.2232,-0.072,-0.3096,-0.1152l-0.072,-0.036c-0.36,-0.16488,-0.9792,-0.2952,-1.3752,-0.2952l-0.0864,0l0,6.79608l0.0864,0c0.396,0,1.0152,-0.13608,1.3752,-0.2952l0.072,-0.03528c0.0864,-0.04464,0.1944,-0.07992,0.3096,-0.1152L10.6286,0.63936z"/>
 <path xmlns="http://www.w3.org/2000/svg" opacity="0.3" id="Shadow" d="M23.711,4.0896L23.711,4.0896c0,0.37944,-0.13032,0.69912,-0.2952,0.69912l-1.9224,0c-0.38016,0,-0.97776,-0.05616,-1.33272,-0.1224L20.088,4.65048c-0.34488,-0.0648,-0.94896,-0.1224,-1.33344,-0.1224L11.808,4.52808c-0.3816,0,-0.9792,0.0576,-1.332,0.1224l-0.072,0.01512c-0.3456,0.06552,-0.9432,0.1224,-1.332,0.1224l-0.3168,0l-1.0008,0l-0.3096,0c-0.3816,0,-0.6984,0.29376,-0.6984,0.64512l0,0.24696L6.7464,5.8392l0,0.1728c0,0.36,0.3168,0.64512,0.6984,0.64512l1.62,0c0.3816,0,0.9792,-0.1224,1.332,-0.26712l0.072,-0.02808c0.3456,-0.14112,0.9504,-0.26496,1.332,-0.26496l6.94656,0c0.37944,0,0.97704,0.12384,1.33416,0.26568l0.07416,0.02808c0.34488,0.14472,0.94464,0.26712,1.33344,0.26712l2.2248,0c0.38088,0,0.69912,-0.2952,0.69912,-0.64512L24.413,5.472L24.413,4.49928L24.413,2.65536C24.1358,2.76336,23.711,3.06576,23.711,4.0896z"/>
 <rect xmlns="http://www.w3.org/2000/svg" x="22.019" y="3.48336" width="0.70272" height="3.15288" opacity="0.4" id="ShadowExtra"/>
 <path xmlns="http://www.w3.org/2000/svg" fill="#FFFFFF" opacity="0.25" id="ReflexRight" d="M19.751,1.08576c0.22968,0,0.49104,-0.1008,0.6624,-0.1728c0.2016,-0.0792,0.57672,-0.144,0.96624,-0.144l1.46088,0c0.22464,0,0.22464,0.2448,0.22464,0.3744c0,0.1296,-0.01512,0.3816,-0.22464,0.3816l-3.06,0c-0.10728,0,-0.2304,-0.1152,-0.2304,-0.22392C19.5566,1.21536,19.6286,1.08576,19.751,1.08576z"/>
 <circle xmlns="http://www.w3.org/2000/svg" fill="#FFFFFF" cx="6.99984" cy="1.13616" opacity="0.35" r="0.432" id="ReflexLeft"/>
 <rect xmlns="http://www.w3.org/2000/svg" x="22.019" y="0.42336" fill="#FFFF33" width="0.70272" height="1.62" opacity="0.5" id="Reflex_gold"/>
 <rect xmlns="http://www.w3.org/2000/svg" x="22.019" y="0.78336" fill="#FFFFFF" width="0.70272" height="0.7488" opacity="0.5" id="Reflex_extra"/>
</g>
</g></g><path stroke='#8c8c8c' stroke-width='2.0952' stroke-linecap='round' stroke-linejoin='round' fill='none' d='M145.542,25.7657L144.495,25.7657' />
<path stroke='#8c8c8c' stroke-width='2.0952' stroke-linecap='round' stroke-linejoin='round' fill='none' d='M172.252,25.7657L173.3,25.7657' />
<g partID='57590'><g transform='translate(143.447,22.1333)' ><g xmlns="http://www.w3.org/2000/svg" id="breadboard">
 <rect xmlns="http://www.w3.org/2000/svg" x="0.36" y="2.5848" fill="none" width="0.72" height="0.72" id="connector0pin"/>
 <rect xmlns="http://www.w3.org/2000/svg" x="29.8202" y="2.5848" fill="none" width="0.72" height="0.72" id="connector1pin"/>
 <line xmlns="http://www.w3.org/2000/svg" stroke-linecap="round" y1="3.6324" stroke="#8C8C8C" y2="3.6324" fill="none" x1="1.0476" x2="2.0952" stroke-width="2.0952" id="connector0leg"/>
 <line xmlns="http://www.w3.org/2000/svg" stroke-linecap="round" y1="3.6324" stroke="#8C8C8C" y2="3.6324" fill="none" x1="29.8526" x2="28.805" stroke-width="2.0952" id="connector1leg"/>
 <path xmlns="http://www.w3.org/2000/svg" stroke="#8C8C8C" fill="none" stroke-width="2.0952" d="M1.0476,3.6324l28.3666,0"/>
 <path xmlns="http://www.w3.org/2000/svg" fill="#D9B477" id="body" d="M10.2478,0.49536c-0.36,-0.1656,-0.9792,-0.2952,-1.3752,-0.2952l-1.9872,0c-0.396,0,-0.72,0.324,-0.72,0.72l0,5.35608c0,0.39672,0.324,0.72,0.72,0.72l1.9872,0c0.396,0,1.0152,-0.13608,1.3752,-0.2952l0.072,-0.03528c0.36,-0.1656,0.9792,-0.2952,1.3752,-0.2952l7.1856,0c0.39672,0,1.01448,0.13608,1.37448,0.2952l0.07272,0.03528c0.36,0.1656,0.97776,0.2952,1.3752,0.2952l1.9872,0c0.39744,0,0.72,-0.32328,0.72,-0.72L24.4102,0.92016c0,-0.396,-0.32256,-0.72,-0.72,-0.72l-1.9872,0c-0.39744,0,-1.0152,0.1368,-1.3752,0.2952l-0.07272,0.036c-0.36,0.1656,-0.97776,0.2952,-1.37448,0.2952l-7.1856,0c-0.396,0,-1.0152,-0.1368,-1.3752,-0.2952L10.2478,0.49536z"/>
 <rect xmlns="http://www.w3.org/2000/svg" x="22.019" y="0.19368" fill="#ad9f4e" width="0.70272" height="6.79536" id="gold_band"/>
 <rect xmlns="http://www.w3.org/2000/svg" x="16.1726" fill="#00a33d" y="0.82656" width="1.8504" height="5.5368" id="band_rd_multiplier"/>
 <rect xmlns="http://www.w3.org/2000/svg" x="12.4726" fill="#000000" y="0.82656" width="1.8504" height="5.5368" id="band_2_nd"/>
 <path xmlns="http://www.w3.org/2000/svg" fill="#8a3d06" id="band_1_st" d="M10.6286,0.63936c-0.1152,-0.036,-0.2232,-0.072,-0.3096,-0.1152l-0.072,-0.036c-0.36,-0.16488,-0.9792,-0.2952,-1.3752,-0.2952l-0.0864,0l0,6.79608l0.0864,0c0.396,0,1.0152,-0.13608,1.3752,-0.2952l0.072,-0.03528c0.0864,-0.04464,0.1944,-0.07992,0.3096,-0.1152L10.6286,0.63936z"/>
 <path xmlns="http://www.w3.org/2000/svg" opacity="0.3" id="Shadow" d="M23.711,4.0896L23.711,4.0896c0,0.37944,-0.13032,0.69912,-0.2952,0.69912l-1.9224,0c-0.38016,0,-0.97776,-0.05616,-1.33272,-0.1224L20.088,4.65048c-0.34488,-0.0648,-0.94896,-0.1224,-1.33344,-0.1224L11.808,4.52808c-0.3816,0,-0.9792,0.0576,-1.332,0.1224l-0.072,0.01512c-0.3456,0.06552,-0.9432,0.1224,-1.332,0.1224l-0.3168,0l-1.0008,0l-0.3096,0c-0.3816,0,-0.6984,0.29376,-0.6984,0.64512l0,0.24696L6.7464,5.8392l0,0.1728c0,0.36,0.3168,0.64512,0.6984,0.64512l1.62,0c0.3816,0,0.9792,-0.1224,1.332,-0.26712l0.072,-0.02808c0.3456,-0.14112,0.9504,-0.26496,1.332,-0.26496l6.94656,0c0.37944,0,0.97704,0.12384,1.33416,0.26568l0.07416,0.02808c0.34488,0.14472,0.94464,0.26712,1.33344,0.26712l2.2248,0c0.38088,0,0.69912,-0.2952,0.69912,-0.64512L24.413,5.472L24.413,4.49928L24.413,2.65536C24.1358,2.76336,23.711,3.06576,23.711,4.0896z"/>
 <rect xmlns="http://www.w3.org/2000/svg" x="22.019" y="3.48336" width="0.70272" height="3.15288" opacity="0.4" id="ShadowExtra"/>
 <path xmlns="http://www.w3.org/2000/svg" fill="#FFFFFF" opacity="0.25" id="ReflexRight" d="M19.751,1.08576c0.22968,0,0.49104,-0.1008,0.6624,-0.1728c0.2016,-0.0792,0.57672,-0.144,0.96624,-0.144l1.46088,0c0.22464,0,0.22464,0.2448,0.22464,0.3744c0,0.1296,-0.01512,0.3816,-0.22464,0.3816l-3.06,0c-0.10728,0,-0.2304,-0.1152,-0.2304,-0.22392C19.5566,1.21536,19.6286,1.08576,19.751,1.08576z"/>
 <circle xmlns="http://www.w3.org/2000/svg" fill="#FFFFFF" cx="6.99984" cy="1.13616" opacity="0.35" r="0.432" id="ReflexLeft"/>
 <rect xmlns="http://www.w3.org/2000/svg" x="22.019" y="0.42336" fill="#FFFF33" width="0.70272" height="1.62" opacity="0.5" id="Reflex_gold"/>
 <rect xmlns="http://www.w3.org/2000/svg" x="22.019" y="0.78336" fill="#FFFFFF" width="0.70272" height="0.7488" opacity="0.5" id="Reflex_extra"/>
</g>
</g></g><path stroke='#8c8c8c' stroke-width='2.0952' stroke-linecap='round' stroke-linejoin='round' fill='none' d='M76.7422,24.6991L75.6946,24.6991' />
<path stroke='#8c8c8c' stroke-width='2.0952' stroke-linecap='round' stroke-linejoin='round' fill='none' d='M103.452,24.6991L104.5,24.6991' />
<g partID='57570'><g transform='translate(74.647,21.0667)' ><g xmlns="http://www.w3.org/2000/svg" id="breadboard">
 <rect xmlns="http://www.w3.org/2000/svg" x="0.36" y="2.5848" fill="none" width="0.72" height="0.72" id="connector0pin"/>
 <rect xmlns="http://www.w3.org/2000/svg" x="29.8202" y="2.5848" fill="none" width="0.72" height="0.72" id="connector1pin"/>
 <line xmlns="http://www.w3.org/2000/svg" stroke-linecap="round" y1="3.6324" stroke="#8C8C8C" y2="3.6324" fill="none" x1="1.0476" x2="2.0952" stroke-width="2.0952" id="connector0leg"/>
 <line xmlns="http://www.w3.org/2000/svg" stroke-linecap="round" y1="3.6324" stroke="#8C8C8C" y2="3.6324" fill="none" x1="29.8526" x2="28.805" stroke-width="2.0952" id="connector1leg"/>
 <path xmlns="http://www.w3.org/2000/svg" stroke="#8C8C8C" fill="none" stroke-width="2.0952" d="M1.0476,3.6324l28.3666,0"/>
 <path xmlns="http://www.w3.org/2000/svg" fill="#D9B477" id="body" d="M10.2478,0.49536c-0.36,-0.1656,-0.9792,-0.2952,-1.3752,-0.2952l-1.9872,0c-0.396,0,-0.72,0.324,-0.72,0.72l0,5.35608c0,0.39672,0.324,0.72,0.72,0.72l1.9872,0c0.396,0,1.0152,-0.13608,1.3752,-0.2952l0.072,-0.03528c0.36,-0.1656,0.9792,-0.2952,1.3752,-0.2952l7.1856,0c0.39672,0,1.01448,0.13608,1.37448,0.2952l0.07272,0.03528c0.36,0.1656,0.97776,0.2952,1.3752,0.2952l1.9872,0c0.39744,0,0.72,-0.32328,0.72,-0.72L24.4102,0.92016c0,-0.396,-0.32256,-0.72,-0.72,-0.72l-1.9872,0c-0.39744,0,-1.0152,0.1368,-1.3752,0.2952l-0.07272,0.036c-0.36,0.1656,-0.97776,0.2952,-1.37448,0.2952l-7.1856,0c-0.396,0,-1.0152,-0.1368,-1.3752,-0.2952L10.2478,0.49536z"/>
 <rect xmlns="http://www.w3.org/2000/svg" x="22.019" y="0.19368" fill="#ad9f4e" width="0.70272" height="6.79536" id="gold_band"/>
 <rect xmlns="http://www.w3.org/2000/svg" x="16.1726" fill="#ffd500" y="0.82656" width="1.8504" height="5.5368" id="band_rd_multiplier"/>
 <rect xmlns="http://www.w3.org/2000/svg" x="12.4726" fill="#c40808" y="0.82656" width="1.8504" height="5.5368" id="band_2_nd"/>
 <path xmlns="http://www.w3.org/2000/svg" fill="#c40808" id="band_1_st" d="M10.6286,0.63936c-0.1152,-0.036,-0.2232,-0.072,-0.3096,-0.1152l-0.072,-0.036c-0.36,-0.16488,-0.9792,-0.2952,-1.3752,-0.2952l-0.0864,0l0,6.79608l0.0864,0c0.396,0,1.0152,-0.13608,1.3752,-0.2952l0.072,-0.03528c0.0864,-0.04464,0.1944,-0.07992,0.3096,-0.1152L10.6286,0.63936z"/>
 <path xmlns="http://www.w3.org/2000/svg" opacity="0.3" id="Shadow" d="M23.711,4.0896L23.711,4.0896c0,0.37944,-0.13032,0.69912,-0.2952,0.69912l-1.9224,0c-0.38016,0,-0.97776,-0.05616,-1.33272,-0.1224L20.088,4.65048c-0.34488,-0.0648,-0.94896,-0.1224,-1.33344,-0.1224L11.808,4.52808c-0.3816,0,-0.9792,0.0576,-1.332,0.1224l-0.072,0.01512c-0.3456,0.06552,-0.9432,0.1224,-1.332,0.1224l-0.3168,0l-1.0008,0l-0.3096,0c-0.3816,0,-0.6984,0.29376,-0.6984,0.64512l0,0.24696L6.7464,5.8392l0,0.1728c0,0.36,0.3168,0.64512,0.6984,0.64512l1.62,0c0.3816,0,0.9792,-0.1224,1.332,-0.26712l0.072,-0.02808c0.3456,-0.14112,0.9504,-0.26496,1.332,-0.26496l6.94656,0c0.37944,0,0.97704,0.12384,1.33416,0.26568l0.07416,0.02808c0.34488,0.14472,0.94464,0.26712,1.33344,0.26712l2.2248,0c0.38088,0,0.69912,-0.2952,0.69912,-0.64512L24.413,5.472L24.413,4.49928L24.413,2.65536C24.1358,2.76336,23.711,3.06576,23.711,4.0896z"/>
 <rect xmlns="http://www.w3.org/2000/svg" x="22.019" y="3.48336" width="0.70272" height="3.15288" opacity="0.4" id="ShadowExtra"/>
 <path xmlns="http://www.w3.org/2000/svg" fill="#FFFFFF" opacity="0.25" id="ReflexRight" d="M19.751,1.08576c0.22968,0,0.49104,-0.1008,0.6624,-0.1728c0.2016,-0.0792,0.57672,-0.144,0.96624,-0.144l1.46088,0c0.22464,0,0.22464,0.2448,0.22464,0.3744c0,0.1296,-0.01512,0.3816,-0.22464,0.3816l-3.06,0c-0.10728,0,-0.2304,-0.1152,-0.2304,-0.22392C19.5566,1.21536,19.6286,1.08576,19.751,1.08576z"/>
 <circle xmlns="http://www.w3.org/2000/svg" fill="#FFFFFF" cx="6.99984" cy="1.13616" opacity="0.35" r="0.432" id="ReflexLeft"/>
 <rect xmlns="http://www.w3.org/2000/svg" x="22.019" y="0.42336" fill="#FFFF33" width="0.70272" height="1.62" opacity="0.5" id="Reflex_gold"/>
 <rect xmlns="http://www.w3.org/2000/svg" x="22.019" y="0.78336" fill="#FFFFFF" width="0.70272" height="0.7488" opacity="0.5" id="Reflex_extra"/>
</g>
</g></g><path stroke='#8c8c8c' stroke-width='2.0952' stroke-linecap='round' stroke-linejoin='round' fill='none' d='M2.0952,24.6991L1.0476,24.6991' />
<path stroke='#8c8c8c' stroke-width='2.0952' stroke-linecap='round' stroke-linejoin='round' fill='none' d='M28.805,24.6991L29.8526,24.6991' />
<g partID='57400'><g transform='translate(0,21.0667)' ><g xmlns="http://www.w3.org/2000/svg" id="breadboard">
 <rect xmlns="http://www.w3.org/2000/svg" x="0.36" y="2.5848" fill="none" width="0.72" height="0.72" id="connector0pin"/>
 <rect xmlns="http://www.w3.org/2000/svg" x="29.8202" y="2.5848" fill="none" width="0.72" height="0.72" id="connector1pin"/>
 <line xmlns="http://www.w3.org/2000/svg" stroke-linecap="round" y1="3.6324" stroke="#8C8C8C" y2="3.6324" fill="none" x1="1.0476" x2="2.0952" stroke-width="2.0952" id="connector0leg"/>
 <line xmlns="http://www.w3.org/2000/svg" stroke-linecap="round" y1="3.6324" stroke="#8C8C8C" y2="3.6324" fill="none" x1="29.8526" x2="28.805" stroke-width="2.0952" id="connector1leg"/>
 <path xmlns="http://www.w3.org/2000/svg" stroke="#8C8C8C" fill="none" stroke-width="2.0952" d="M1.0476,3.6324l28.3666,0"/>
 <path xmlns="http://www.w3.org/2000/svg" fill="#D9B477" id="body" d="M10.2478,0.49536c-0.36,-0.1656,-0.9792,-0.2952,-1.3752,-0.2952l-1.9872,0c-0.396,0,-0.72,0.324,-0.72,0.72l0,5.35608c0,0.39672,0.324,0.72,0.72,0.72l1.9872,0c0.396,0,1.0152,-0.13608,1.3752,-0.2952l0.072,-0.03528c0.36,-0.1656,0.9792,-0.2952,1.3752,-0.2952l7.1856,0c0.39672,0,1.01448,0.13608,1.37448,0.2952l0.07272,0.03528c0.36,0.1656,0.97776,0.2952,1.3752,0.2952l1.9872,0c0.39744,0,0.72,-0.32328,0.72,-0.72L24.4102,0.92016c0,-0.396,-0.32256,-0.72,-0.72,-0.72l-1.9872,0c-0.39744,0,-1.0152,0.1368,-1.3752,0.2952l-0.07272,0.036c-0.36,0.1656,-0.97776,0.2952,-1.37448,0.2952l-7.1856,0c-0.396,0,-1.0152,-0.1368,-1.3752,-0.2952L10.2478,0.49536z"/>
 <rect xmlns="http://www.w3.org/2000/svg" x="22.019" y="0.19368" fill="#ad9f4e" width="0.70272" height="6.79536" id="gold_band"/>
 <rect xmlns="http://www.w3.org/2000/svg" x="16.1726" fill="#8a3d06" y="0.82656" width="1.8504" height="5.5368" id="band_rd_multiplier"/>
 <rect xmlns="http://www.w3.org/2000/svg" x="12.4726" fill="#c40808" y="0.82656" width="1.8504" height="5.5368" id="band_2_nd"/>
 <path xmlns="http://www.w3.org/2000/svg" fill="#c40808" id="band_1_st" d="M10.6286,0.63936c-0.1152,-0.036,-0.2232,-0.072,-0.3096,-0.1152l-0.072,-0.036c-0.36,-0.16488,-0.9792,-0.2952,-1.3752,-0.2952l-0.0864,0l0,6.79608l0.0864,0c0.396,0,1.0152,-0.13608,1.3752,-0.2952l0.072,-0.03528c0.0864,-0.04464,0.1944,-0.07992,0.3096,-0.1152L10.6286,0.63936z"/>
 <path xmlns="http://www.w3.org/2000/svg" opacity="0.3" id="Shadow" d="M23.711,4.0896L23.711,4.0896c0,0.37944,-0.13032,0.69912,-0.2952,0.69912l-1.9224,0c-0.38016,0,-0.97776,-0.05616,-1.33272,-0.1224L20.088,4.65048c-0.34488,-0.0648,-0.94896,-0.1224,-1.33344,-0.1224L11.808,4.52808c-0.3816,0,-0.9792,0.0576,-1.332,0.1224l-0.072,0.01512c-0.3456,0.06552,-0.9432,0.1224,-1.332,0.1224l-0.3168,0l-1.0008,0l-0.3096,0c-0.3816,0,-0.6984,0.29376,-0.6984,0.64512l0,0.24696L6.7464,5.8392l0,0.1728c0,0.36,0.3168,0.64512,0.6984,0.64512l1.62,0c0.3816,0,0.9792,-0.1224,1.332,-0.26712l0.072,-0.02808c0.3456,-0.14112,0.9504,-0.26496,1.332,-0.26496l6.94656,0c0.37944,0,0.97704,0.12384,1.33416,0.26568l0.07416,0.02808c0.34488,0.14472,0.94464,0.26712,1.33344,0.26712l2.2248,0c0.38088,0,0.69912,-0.2952,0.69912,-0.64512L24.413,5.472L24.413,4.49928L24.413,2.65536C24.1358,2.76336,23.711,3.06576,23.711,4.0896z"/>
 <rect xmlns="http://www.w3.org/2000/svg" x="22.019" y="3.48336" width="0.70272" height="3.15288" opacity="0.4" id="ShadowExtra"/>
 <path xmlns="http://www.w3.org/2000/svg" fill="#FFFFFF" opacity="0.25" id="ReflexRight" d="M19.751,1.08576c0.22968,0,0.49104,-0.1008,0.6624,-0.1728c0.2016,-0.0792,0.57672,-0.144,0.96624,-0.144l1.46088,0c0.22464,0,0.22464,0.2448,0.22464,0.3744c0,0.1296,-0.01512,0.3816,-0.22464,0.3816l-3.06,0c-0.10728,0,-0.2304,-0.1152,-0.2304,-0.22392C19.5566,1.21536,19.6286,1.08576,19.751,1.08576z"/>
 <circle xmlns="http://www.w3.org/2000/svg" fill="#FFFFFF" cx="6.99984" cy="1.13616" opacity="0.35" r="0.432" id="ReflexLeft"/>
 <rect xmlns="http://www.w3.org/2000/svg" x="22.019" y="0.42336" fill="#FFFF33" width="0.70272" height="1.62" opacity="0.5" id="Reflex_gold"/>
 <rect xmlns="http://www.w3.org/2000/svg" x="22.019" y="0.78336" fill="#FFFFFF" width="0.70272" height="0.7488" opacity="0.5" id="Reflex_extra"/>
</g>
</g></g><path stroke='#8c8c8c' stroke-width='2.0952' stroke-linecap='round' stroke-linejoin='round' fill='none' d='M111.142,25.2324L110.095,25.2324' />
<path stroke='#8c8c8c' stroke-width='2.0952' stroke-linecap='round' stroke-linejoin='round' fill='none' d='M137.852,25.2324L138.9,25.2324' />
<g partID='57610'><g transform='translate(109.047,21.6)' ><g xmlns="http://www.w3.org/2000/svg" id="breadboard">
 <rect xmlns="http://www.w3.org/2000/svg" x="0.36" y="2.5848" fill="none" width="0.72" height="0.72" id="connector0pin"/>
 <rect xmlns="http://www.w3.org/2000/svg" x="29.8202" y="2.5848" fill="none" width="0.72" height="0.72" id="connector1pin"/>
 <line xmlns="http://www.w3.org/2000/svg" stroke-linecap="round" y1="3.6324" stroke="#8C8C8C" y2="3.6324" fill="none" x1="1.0476" x2="2.0952" stroke-width="2.0952" id="connector0leg"/>
 <line xmlns="http://www.w3.org/2000/svg" stroke-linecap="round" y1="3.6324" stroke="#8C8C8C" y2="3.6324" fill="none" x1="29.8526" x2="28.805" stroke-width="2.0952" id="connector1leg"/>
 <path xmlns="http://www.w3.org/2000/svg" stroke="#8C8C8C" fill="none" stroke-width="2.0952" d="M1.0476,3.6324l28.3666,0"/>
 <path xmlns="http://www.w3.org/2000/svg" fill="#D9B477" id="body" d="M10.2478,0.49536c-0.36,-0.1656,-0.9792,-0.2952,-1.3752,-0.2952l-1.9872,0c-0.396,0,-0.72,0.324,-0.72,0.72l0,5.35608c0,0.39672,0.324,0.72,0.72,0.72l1.9872,0c0.396,0,1.0152,-0.13608,1.3752,-0.2952l0.072,-0.03528c0.36,-0.1656,0.9792,-0.2952,1.3752,-0.2952l7.1856,0c0.39672,0,1.01448,0.13608,1.37448,0.2952l0.07272,0.03528c0.36,0.1656,0.97776,0.2952,1.3752,0.2952l1.9872,0c0.39744,0,0.72,-0.32328,0.72,-0.72L24.4102,0.92016c0,-0.396,-0.32256,-0.72,-0.72,-0.72l-1.9872,0c-0.39744,0,-1.0152,0.1368,-1.3752,0.2952l-0.07272,0.036c-0.36,0.1656,-0.97776,0.2952,-1.37448,0.2952l-7.1856,0c-0.396,0,-1.0152,-0.1368,-1.3752,-0.2952L10.2478,0.49536z"/>
 <rect xmlns="http://www.w3.org/2000/svg" x="22.019" y="0.19368" fill="#ad9f4e" width="0.70272" height="6.79536" id="gold_band"/>
 <rect xmlns="http://www.w3.org/2000/svg" x="16.1726" fill="#ff4d00" y="0.82656" width="1.8504" height="5.5368" id="band_rd_multiplier"/>
 <rect xmlns="http://www.w3.org/2000/svg" x="12.4726" fill="#000000" y="0.82656" width="1.8504" height="5.5368" id="band_2_nd"/>
 <path xmlns="http://www.w3.org/2000/svg" fill="#8a3d06" id="band_1_st" d="M10.6286,0.63936c-0.1152,-0.036,-0.2232,-0.072,-0.3096,-0.1152l-0.072,-0.036c-0.36,-0.16488,-0.9792,-0.2952,-1.3752,-0.2952l-0.0864,0l0,6.79608l0.0864,0c0.396,0,1.0152,-0.13608,1.3752,-0.2952l0.072,-0.03528c0.0864,-0.04464,0.1944,-0.07992,0.3096,-0.1152L10.6286,0.63936z"/>
 <path xmlns="http://www.w3.org/2000/svg" opacity="0.3" id="Shadow" d="M23.711,4.0896L23.711,4.0896c0,0.37944,-0.13032,0.69912,-0.2952,0.69912l-1.9224,0c-0.38016,0,-0.97776,-0.05616,-1.33272,-0.1224L20.088,4.65048c-0.34488,-0.0648,-0.94896,-0.1224,-1.33344,-0.1224L11.808,4.52808c-0.3816,0,-0.9792,0.0576,-1.332,0.1224l-0.072,0.01512c-0.3456,0.06552,-0.9432,0.1224,-1.332,0.1224l-0.3168,0l-1.0008,0l-0.3096,0c-0.3816,0,-0.6984,0.29376,-0.6984,0.64512l0,0.24696L6.7464,5.8392l0,0.1728c0,0.36,0.3168,0.64512,0.6984,0.64512l1.62,0c0.3816,0,0.9792,-0.1224,1.332,-0.26712l0.072,-0.02808c0.3456,-0.14112,0.9504,-0.26496,1.332,-0.26496l6.94656,0c0.37944,0,0.97704,0.12384,1.33416,0.26568l0.07416,0.02808c0.34488,0.14472,0.94464,0.26712,1.33344,0.26712l2.2248,0c0.38088,0,0.69912,-0.2952,0.69912,-0.64512L24.413,5.472L24.413,4.49928L24.413,2.65536C24.1358,2.76336,23.711,3.06576,23.711,4.0896z"/>
 <rect xmlns="http://www.w3.org/2000/svg" x="22.019" y="3.48336" width="0.70272" height="3.15288" opacity="0.4" id="ShadowExtra"/>
 <path xmlns="http://www.w3.org/2000/svg" fill="#FFFFFF" opacity="0.25" id="ReflexRight" d="M19.751,1.08576c0.22968,0,0.49104,-0.1008,0.6624,-0.1728c0.2016,-0.0792,0.57672,-0.144,0.96624,-0.144l1.46088,0c0.22464,0,0.22464,0.2448,0.22464,0.3744c0,0.1296,-0.01512,0.3816,-0.22464,0.3816l-3.06,0c-0.10728,0,-0.2304,-0.1152,-0.2304,-0.22392C19.5566,1.21536,19.6286,1.08576,19.751,1.08576z"/>
 <circle xmlns="http://www.w3.org/2000/svg" fill="#FFFFFF" cx="6.99984" cy="1.13616" opacity="0.35" r="0.432" id="ReflexLeft"/>
 <rect xmlns="http://www.w3.org/2000/svg" x="22.019" y="0.42336" fill="#FFFF33" width="0.70272" height="1.62" opacity="0.5" id="Reflex_gold"/>
 <rect xmlns="http://www.w3.org/2000/svg" x="22.019" y="0.78336" fill="#FFFFFF" width="0.70272" height="0.7488" opacity="0.5" id="Reflex_extra"/>
</g>
</g></g><g partID='57570' id='partLabel'><g transform='translate(75.1473,0.8)' ><g font-size='9' font-style='normal' font-weight='normal' fill='#000000' font-family="'DroidSans'" id='breadboardLabel' fill-opacity='1' stroke='none' ><text x='0' y='6.75'>R3</text><text x='0' y='15.75'>220k&#x3a9;</text></g></g></g><g partID='57400' id='partLabel'><g transform='translate(3.16691,0)' ><g font-size='9' font-style='normal' font-weight='normal' fill='#000000' font-family="'DroidSans'" id='breadboardLabel' fill-opacity='1' stroke='none' ><text x='0' y='6.75'>R1</text><text x='0' y='15.75'>220&#x3a9;</text></g></g></g><g partID='57430' id='partLabel'><g transform='translate(36.7473,0.533333)' ><g font-size='9' font-style='normal' font-weight='normal' fill='#000000' font-family="'DroidSans'" id='breadboardLabel' fill-opacity='1' stroke='none' ><text x='0' y='6.75'>R2</text><text x='0' y='15.75'>2.2k&#x3a9;</text></g></g></g><g partID='57610' id='partLabel'><g transform='translate(111.414,0.533333)' ><g font-size='9' font-style='normal' font-weight='normal' fill='#000000' font-family="'DroidSans'" id='breadboardLabel' fill-opacity='1' stroke='none' ><text x='0' y='6.75'>R4</text><text x='0' y='15.75'>10k&#x3a9;</text></g></g></g><g partID='57590' id='partLabel'><g transform='translate(148.747,2.13333)' ><g font-size='9' font-style='normal' font-weight='normal' fill='#000000' font-family="'DroidSans'" id='breadboardLabel' fill-opacity='1' stroke='none' ><text x='0' y='6.75'>R5</text><text x='0' y='15.75'>1M&#x3a9;</text></g></g></g></svg>