<?xml version='1.0' encoding='UTF-8' standalone='no'?>
<!-- Created with Fritzing (http://www.fritzing.org/) -->
<svg xmlns:svg='http://www.w3.org/2000/svg' xmlns='http://www.w3.org/2000/svg' version='1.2' baseProfile='tiny' x='0in' y='0in' width='2.2893in' height='1.4309in' viewBox='0 0 164.83 103.025' >
<g partID='76360'><g transform='translate(0,24.9992)' ><g xmlns="http://www.w3.org/2000/svg" id="breadboard">
 <g xmlns="http://www.w3.org/2000/svg">
  <polygon xmlns="http://www.w3.org/2000/svg" points="14.8219,23.7449,14.8219,15.4706,16.9819,15.4706,16.9819,23.7449" fill="#8C8C8C"/>
  <polygon xmlns="http://www.w3.org/2000/svg" points="0.42192,8.27496,0.42192,0.00072,2.58048,0.00072,2.58048,8.27496" fill="#8C8C8C"/>
  <polygon xmlns="http://www.w3.org/2000/svg" points="14.8219,8.27568,14.8219,0,16.9819,0,16.9819,8.27568" fill="#8C8C8C"/>
  <polygon xmlns="http://www.w3.org/2000/svg" points="0.42264,23.7463,0.42264,15.4706,2.58192,15.4706,2.58192,23.7463" fill="#8C8C8C"/>
  <rect xmlns="http://www.w3.org/2000/svg" width="17.653" x="0.00864" y="3.04704" height="17.6544"/>
  <path xmlns="http://www.w3.org/2000/svg" fill="#999999" d="M17.6609,19.2614c0,0.79272,-0.64512,1.43928,-1.44,1.43928L1.44792,20.7007c-0.79272,0,-1.43928,-0.64656,-1.43928,-1.43928L0.00864,4.4856c0,-0.792,0.64656,-1.43856,1.43928,-1.43856l14.7751,0c0.79416,0,1.43784,0.64656,1.43784,1.43856L17.6609,19.2614L17.6609,19.2614z"/>
  <circle xmlns="http://www.w3.org/2000/svg" cx="2.57976" cy="5.61816" r="1.52928"/>
  <circle xmlns="http://www.w3.org/2000/svg" cx="15.133" cy="5.6448" r="1.52928"/>
  <circle xmlns="http://www.w3.org/2000/svg" cx="15.1063" cy="18.198" r="1.52928"/>
  <circle xmlns="http://www.w3.org/2000/svg" cx="2.55312" cy="18.1699" r="1.52928"/>
  <circle xmlns="http://www.w3.org/2000/svg" fill="#3F3F3F" cx="8.8344" cy="11.8735" r="5.148"/>
  <linearGradient xmlns="http://www.w3.org/2000/svg" id="SVGID_1_" gradientUnits="userSpaceOnUse" y1="-335.051" y2="-335.051" x1="-192.873" x2="-182.577" gradientTransform="matrix(1 0 0 -1 273 -448.8574)">
   <stop xmlns="http://www.w3.org/2000/svg" offset="0" style="stop-color:#333333"/>
   <stop xmlns="http://www.w3.org/2000/svg" offset="1" style="stop-color:#3C3C3C"/>
  </linearGradient>
  <circle xmlns="http://www.w3.org/2000/svg" fill="url(#SVGID_1_)" cx="8.8344" cy="11.8735" r="5.148"/>
  <circle xmlns="http://www.w3.org/2000/svg" cx="8.9244" cy="12.4855" opacity="0.6" r="4.53024" enable-background="new    "/>
  <circle xmlns="http://www.w3.org/2000/svg" fill="#735348" cx="8.84088" cy="11.9038" r="4.41504"/>
  <path xmlns="http://www.w3.org/2000/svg" fill="#FFFFFF" opacity="0.5" enable-background="new    " d="M2.38176,5.53824c0.03024,-0.072,0.08568,-0.12744,0.16416,-0.14112L2.39472,4.43376C2.33712,4.44312,2.27592,4.4352,2.21904,4.45248L2.2176,4.44816C1.8612,4.55832,1.5948,4.824,1.45872,5.16312L2.38176,5.53824z"/>
  <path xmlns="http://www.w3.org/2000/svg" fill="#FFFFFF" opacity="0.5" enable-background="new    " d="M14.9335,5.56416c0.02952,-0.07344,0.08496,-0.12888,0.16488,-0.14184l-0.14904,-0.96336c-0.05904,0.0108,-0.11952,0.00144,-0.1764,0.01872l-0.00216,-0.00504c-0.35496,0.10944,-0.62208,0.37512,-0.75816,0.71496L14.9335,5.56416z"/>
  <path xmlns="http://www.w3.org/2000/svg" fill="#FFFFFF" opacity="0.5" enable-background="new    " d="M14.909,18.1174c0.02952,-0.07344,0.08352,-0.1296,0.16344,-0.14184l-0.14904,-0.96264c-0.05904,0.0108,-0.11952,0.00144,-0.17712,0.01872l-0.00144,-0.0072c-0.35568,0.10944,-0.6228,0.37512,-0.75816,0.71568L14.909,18.1174z"/>
  <path xmlns="http://www.w3.org/2000/svg" fill="#FFFFFF" opacity="0.5" enable-background="new    " d="M2.35512,18.0907c0.02952,-0.07344,0.08496,-0.12672,0.16488,-0.1404l-0.1512,-0.96408c-0.05904,0.01224,-0.11952,0.00144,-0.1764,0.01944l-0.00144,-0.00504c-0.3564,0.108,-0.6228,0.37512,-0.76032,0.71424L2.35512,18.0907z"/>
  <path xmlns="http://www.w3.org/2000/svg" fill="#FFFFFF" opacity="0.6" enable-background="new    " d="M10.4206,7.78896c-0.342,-0.1332,-0.702,-0.22896,-1.08288,-0.27216c-0.94752,-0.10584,-1.85472,0.1044,-2.63016,0.53424L6.61104,8.3016c0.86616,-0.46296,1.87488,-0.67752,2.92464,-0.56016c0.32256,0.03744,0.63648,0.10944,0.93672,0.20448L10.4206,7.78896z"/>
 </g>
</g>
</g></g><path stroke='#8c8c8c' stroke-width='2.10863' stroke-linecap='round' stroke-linejoin='round' fill='none' d='M93.0869,56.0123L93.0869,61.3149' />
<path stroke='#8c8c8c' stroke-width='2.10863' stroke-linecap='round' stroke-linejoin='round' fill='none' d='M100.196,56.0123L100.196,61.3149' />
<g partID='76510'><g transform='translate(78.9305,33.5814)' ><g  id="breadboard">
 <rect  id="connector0pin" width="2.12046" x="13.1031" y="12.0499" height="0.996928" fill="none"/>
 <rect  id="connector1pin" width="2.12243" x="20.1976" y="12.0499" height="0.996928" fill="none"/>
 <g  id="connector0leg" stroke-width="2.10863" y1="22.5" stroke-linecap="round" y2="27.819" fill="none" x1="14.367" x2="14.367" stroke="#8C8C8C"/>
 <g  id="connector1leg" stroke-width="2.10863" y1="22.5" stroke-linecap="round" y2="27.819" fill="none" x1="21.582" x2="21.582" stroke="#8C8C8C"/>
 <path  fill="#BABABA" d="M10.5392,0.235275c-0.386255,-0.67492,-3.04767,0.148542,-5.94458,1.84232C1.69775,3.76938,-0.338958,5.68847,0.0472965,6.36439l8.56658,15.0137c-0.385269,-0.675917,1.65045,-2.596,4.54835,-4.28779c2.89592,-1.69278,5.55931,-2.51625,5.94458,-1.84232L10.5392,0.235275z"/>
 <path  fill="#BFBFBF" d="M8.49957,20.776l-0.320237,-0.120628c0.934106,-2.53818,8.43553,-6.6216,10.5087,-6.17896l-0.0679887,0.338956C16.6838,14.4136,9.3716,18.4093,8.49957,20.776L8.49957,20.776z"/>
 <g transform="matrix(0.5, 0.866, -0.866, 0.5, 22.9161, -2.98769)">
  <ellipse  fill="#3F3F3F" cx="14.0155" cy="18.5847" rx="1.5194" ry="6.66745"/>
 </g>
 <g transform="matrix(0.5004, 0.8658, -0.8658, 0.5004, 22.8425, -3.07612)">
  <ellipse  fill="#515151" cx="14.0559" cy="18.488" rx="0.783348" ry="3.4404"/>
 </g>
 <g transform="matrix(0.5004, 0.8658, -0.8658, 0.5004, 22.8023, -3.22726)">
  <ellipse  cx="14.1653" cy="18.3764" rx="0.751817" ry="3.29784"/>
 </g>
 <path  fill="#6D6D6D" d="M8.01183,21.3981c-0.418771,-0.734736,1.7953,-2.8233,4.94741,-4.66463c3.15211,-1.84232,6.04705,-2.73756,6.46582,-2.00383l0.329105,0.547313c-0.420742,-0.735733,-3.31371,0.160505,-6.46582,2.00183c-3.15211,1.84232,-5.36717,3.9279,-4.94741,4.66562L8.01183,21.3981z"/>
 <path  fill="#8C8C8C" d="M22.32,22.4309L20.2094,22.4309L20.2094,17.7064c0,-0.336962,-0.0118241,-0.939106,-0.17145,-1.23818l-1.88201,-3.51816l1.73322,-0.949075l1.88398,3.51916c0.311369,0.588188,0.547851,1.5263,0.547851,2.18626L22.321,22.4309"/>
 <path  fill="#8C8C8C" d="M13.8391,18.4372c-0.192142,0.103681,-0.54588,0.321011,-0.724227,0.426685L13.1149,22.4309l2.11061,0L15.2255,17.8909C14.7821,18.0683,14.3338,18.174,13.8391,18.4372z"/>
 <path  fill="#BABABA" d="M4.69615,2.33481C4.00148,2.74454,3.35904,3.16824,2.78951,3.58196l8.14978,14.2979c0.526173,-0.381823,1.11245,-0.781592,1.76574,-1.18934c1.90467,-1.12753,3.31962,-1.79746,4.3365,-2.11847L8.99126,0.415719C7.90935,0.679905,6.35054,1.35582,4.69615,2.33481z"/>
 <polygon  points="10.5826,18.1461,10.5836,18.1451,9.86427,16.884"/>
 <path  fill="#D3D3D3" d="M10.4062,0.501455c-0.146816,-0.261195,-0.672004,-0.269171,-1.41594,-0.0857358l8.05124,14.1554c0.474936,-0.150536,0.873014,-0.232284,1.17551,-0.237269L10.4062,0.501455z"/>
 <path  fill="#A5A5A5" d="M2.44858,3.84415l7.41569,13.0398l0.718315,1.26211c0.117256,-0.0887266,0.23057,-0.175459,0.355709,-0.26618L2.78951,3.58196C2.66831,3.67069,2.56386,3.75642,2.44858,3.84415z"/>
 <path  fill="#8E8E8E" d="M9.86427,16.884L2.44858,3.84415c-0.00394137,0.00299078,-0.0068974,0.00598157,-0.0108388,0.00996928C1.25139,4.75834,0.451287,5.59277,0.291662,6.12513l8.02365,14.1065c0.289691,-0.439645,1.08289,-1.19432,2.26826,-2.08557L9.86427,16.884z"/>
 <path  fill="#4D4D4D" d="M19.6556,15.8422c-0.0394137,0,-0.0778421,-0.0209355,-0.0985343,-0.0588188l-0.634561,-1.15245c-0.0305456,-0.054831,-0.0108388,-0.124616,0.0433551,-0.154524c0.0561646,-0.0299078,0.123168,-0.0109662,0.152728,0.0438648l0.633576,1.15245c0.0305456,0.055828,0.0118241,0.124616,-0.0433551,0.154524C19.6931,15.8372,19.6744,15.8422,19.6556,15.8422L19.6556,15.8422z"/>
</g>
</g></g><g partID='76620'><g transform='translate(36.1755,37.8706)' ><g id="breadboard" xmlns="http://www.w3.org/2000/svg">
<g id="connector0terminal" width="1.8144" x="4.34376" y="25.2756" height="1.18584" fill="#8C8C8C" xmlns="http://www.w3.org/2000/svg"/>
<g id="connector1terminal" width="1.81512" x="11.543" y="25.2756" height="1.18584" fill="#8C8C8C" xmlns="http://www.w3.org/2000/svg"/>
<g id="connector2terminal" width="1.81512" x="18.7416" y="25.2756" height="1.18584" fill="#8C8C8C" xmlns="http://www.w3.org/2000/svg"/>
<rect id="connector0pin" width="1.8144" x="4.34376" y="21.1104" height="5.35536" fill="#8C8C8C" xmlns="http://www.w3.org/2000/svg"/>
<rect id="connector1pin" width="1.81512" x="11.543" y="21.1104" height="5.35536" fill="#8C8C8C" xmlns="http://www.w3.org/2000/svg"/>
<rect id="connector2pin" width="1.81512" x="18.7416" y="21.1104" height="5.35536" fill="#8C8C8C" xmlns="http://www.w3.org/2000/svg"/>
<rect id="rect4" width="1.8144" x="4.33512" y="11.4516" height="14.9652" fill="#8C8C8C" xmlns="http://www.w3.org/2000/svg"/>
<rect id="rect6" width="1.81512" x="11.5344" y="11.4516" height="14.9652" fill="#8C8C8C" xmlns="http://www.w3.org/2000/svg"/>
<rect id="rect8" width="1.81512" x="18.733" y="11.4516" height="14.9652" fill="#8C8C8C" xmlns="http://www.w3.org/2000/svg"/>
<polygon id="polygon21" points="7.76232,18.7553,6.14952,19.4753,4.33584,19.4753,2.72232,18.7553,2.72232,9.9864,7.76232,9.9864" fill="#8C8C8C" xmlns="http://www.w3.org/2000/svg"/>
<polygon id="polygon23" points="14.963,18.7553,13.3481,19.4753,11.5351,19.4753,9.92232,18.7553,9.92232,9.9864,14.963,9.9864" fill="#8C8C8C" xmlns="http://www.w3.org/2000/svg"/>
<polygon id="polygon25" points="22.1616,18.7553,20.5466,19.4753,18.7344,19.4753,17.1216,18.7553,17.1216,9.9864,22.1616,9.9864" fill="#8C8C8C" xmlns="http://www.w3.org/2000/svg"/>
<rect id="rect27" width="26.6386" x="-0.87696" y="3.34512" height="13.2998" fill="#1A1A1A" xmlns="http://www.w3.org/2000/svg"/>
<rect id="rect49" width="26.6386" x="-0.87696" y="5.94" height="3.34728" xmlns="http://www.w3.org/2000/svg"/>
<rect id="rect51" width="26.6386" x="-0.87696" y="3.24072" height="4.13856" fill="#333333" xmlns="http://www.w3.org/2000/svg"/>
<rect id="rect49_1_" width="11.2046" x="7.29792" y="3.64464" height="3.34728" xmlns="http://www.w3.org/2000/svg"/>
<rect id="rect27_1_" width="4.79808" x="13.5547" y="1.59408" height="5.27904" fill="#1A1A1A" xmlns="http://www.w3.org/2000/svg"/>
<rect id="rect51_1_" width="4.79808" x="13.5547" y="-0.59976" height="2.19312" fill="#333333" xmlns="http://www.w3.org/2000/svg"/>
</g>
</g></g><g partID='76680'><g transform='translate(114.268,0)' ><g id="breadboard" xmlns="http://www.w3.org/2000/svg">
<rect width="2.14" id="connector0pin" x="20.073" y="53.018" height="3.148" fill="#919191" xmlns="http://www.w3.org/2000/svg"/>
<rect width="2.159" id="connector1pin" x="27.292" y="53.018" height="3.146" fill="#919191" xmlns="http://www.w3.org/2000/svg"/>
<g width="2.14" id="connector0terminal" x="20.073" y="55.768" height="0.4" fill="#919191" xmlns="http://www.w3.org/2000/svg"/>
<g width="2.159" id="connector1terminal" x="27.292" y="55.766" height="0.402" fill="#919191" xmlns="http://www.w3.org/2000/svg"/>
<rect width="2.994" id="bb" x="19.925" y="47.928" height="8.24" fill="#8B8B8B" xmlns="http://www.w3.org/2000/svg"/>
<rect width="2.994" id="aa" x="27.111" y="47.928" height="8.24" fill="#8B8B8B" xmlns="http://www.w3.org/2000/svg"/>
<path stroke-width="3" fill="none" xmlns="http://www.w3.org/2000/svg" d="M21.416,37.566l0,10.361" stroke="#000000"/>
<path stroke-width="3" fill="none" xmlns="http://www.w3.org/2000/svg" d="M28.643,37.566c0,0,0,6.123,0,10.361" stroke="#000000"/>
<ellipse fill="#8B8B8B" cx="25.014" cy="15.211" xmlns="http://www.w3.org/2000/svg" rx="17.54" ry="7.316"/>
<path fill="#262626" xmlns="http://www.w3.org/2000/svg" d="M7.474,35.217c0,4.043,7.854,7.316,17.54,7.316c9.688,0,17.54,-3.273,17.54,-7.316L42.554,15.211c0,4.042,-7.853,7.316,-17.54,7.316c-9.687,0,-17.54,-3.273,-17.54,-7.316L7.474,35.217z"/>
<g xmlns="http://www.w3.org/2000/svg">
<path xmlns="http://www.w3.org/2000/svg" opacity="0.63" enable-background="new    " d="M7.474,15.211l0,20.004c0,2.553,3.142,4.801,7.893,6.109L15.367,21.319C10.616,20.009,7.474,17.765,7.474,15.211z"/>
</g>
<path fill="#8B8B8B" xmlns="http://www.w3.org/2000/svg" d="M41.947,18.347l0,17.509c0.385,-0.604,0.607,-1.234,0.607,-1.889L42.554,16.46C42.554,17.114,42.331,17.744,41.947,18.347z"/>
<g xmlns="http://www.w3.org/2000/svg">
<g xmlns="http://www.w3.org/2000/svg">
<g xmlns="http://www.w3.org/2000/svg" enable-background="new    ">
<g xmlns="http://www.w3.org/2000/svg" enable-background="new    ">
<g xmlns="http://www.w3.org/2000/svg" enable-background="new    ">
<path fill="#141414" xmlns="http://www.w3.org/2000/svg" d="M0.065,24.584l50.432,0c-0.011,0.047,-0.03,0.088,-0.06,0.123c-0.03,0.035,-0.068,0.063,-0.116,0.086s-0.104,0.04,-0.168,0.051c-0.064,0.011,-0.138,0.017,-0.217,0.017l-4.898,0L42.58,24.861l-2.463,0l-4.938,0l-4.947,0l-4.954,0L22.8,24.861l-2.478,0l-2.477,0l-2.474,0l-2.471,0l-2.47,0L7.967,24.861l-2.46,0L3.051,24.861L0.602,24.861c-0.076,0,-0.146,-0.006,-0.207,-0.017c-0.062,-0.011,-0.116,-0.028,-0.161,-0.051c-0.046,-0.023,-0.083,-0.051,-0.112,-0.086C0.093,24.672,0.075,24.631,0.065,24.584"/>
</g>
</g>
<g xmlns="http://www.w3.org/2000/svg">
<polygon points="50.552,24.313,50.496,24.584,0.065,24.584,0.007,24.313" fill="#131313" xmlns="http://www.w3.org/2000/svg"/>
</g>
<g xmlns="http://www.w3.org/2000/svg" enable-background="new    ">
<g xmlns="http://www.w3.org/2000/svg" enable-background="new    ">
<polyline points="39.699,10.357,10.01,10.357,10.008,10.354,10.006,10.351,10.004,10.348,10.002,10.344,39.705,10.344,39.704,10.348,39.703,10.351,39.701,10.354,39.699,10.357" fill="#535353" xmlns="http://www.w3.org/2000/svg"/>
<polyline points="39.705,10.344,10.002,10.344,10,10.34,9.998,10.336,9.996,10.332,9.994,10.328,39.714,10.328,39.712,10.332,39.71,10.336,39.707,10.34,39.705,10.344" fill="#4B4B4B" xmlns="http://www.w3.org/2000/svg"/>
<polyline points="39.714,10.328,9.994,10.328,9.991,10.324,9.989,10.32,9.987,10.316,9.984,10.312,39.722,10.312,39.72,10.316,39.718,10.32,39.716,10.324,39.714,10.328" fill="#404040" xmlns="http://www.w3.org/2000/svg"/>
<polyline points="39.722,10.312,9.984,10.312,9.982,10.308,9.979,10.304,9.977,10.3,9.974,10.296,39.732,10.296,39.73,10.3,39.727,10.304,39.724,10.308,39.722,10.312" fill="#262626" xmlns="http://www.w3.org/2000/svg"/>
<polyline points="39.732,10.296,9.974,10.296,9.972,10.291,9.97,10.288,9.968,10.284,9.966,10.28,39.741,10.28,39.738,10.284,39.736,10.288,39.734,10.291,39.732,10.296" fill="#252525" xmlns="http://www.w3.org/2000/svg"/>
<polyline points="39.741,10.28,9.966,10.28,9.964,10.276,9.961,10.271,9.959,10.268,9.957,10.264,39.749,10.264,39.746,10.268,39.745,10.271,39.743,10.276,39.741,10.28" fill="#242424" xmlns="http://www.w3.org/2000/svg"/>
<polyline points="39.749,10.264,9.957,10.264,9.955,10.26,9.952,10.256,9.95,10.252,9.948,10.248,39.757,10.248,39.755,10.252,39.753,10.256,39.751,10.26,39.749,10.264" fill="#242424" xmlns="http://www.w3.org/2000/svg"/>
<polyline points="39.757,10.248,9.948,10.248,9.946,10.244,9.943,10.24,9.941,10.236,9.939,10.232,39.765,10.232,39.763,10.236,39.761,10.24,39.76,10.244,39.757,10.248" fill="#232323" xmlns="http://www.w3.org/2000/svg"/>
<polyline points="39.765,10.232,9.939,10.232,9.936,10.228,9.934,10.225,9.931,10.221,9.929,10.217,39.775,10.217,39.773,10.221,39.771,10.225,39.768,10.228,39.765,10.232" fill="#222222" xmlns="http://www.w3.org/2000/svg"/>
<polyline points="39.775,10.217,9.929,10.217,9.927,10.213,9.925,10.209,9.923,10.205,9.921,10.202,39.784,10.202,39.781,10.205,39.779,10.209,39.777,10.213,39.775,10.217" fill="#212121" xmlns="http://www.w3.org/2000/svg"/>
<polyline points="39.784,10.202,9.921,10.202,9.917,10.196,9.914,10.19,9.911,10.185,9.908,10.18,39.795,10.18,39.792,10.185,39.789,10.19,39.787,10.196,39.784,10.202" fill="#212121" xmlns="http://www.w3.org/2000/svg"/>
<polyline points="39.795,10.18,9.908,10.18,9.905,10.174,9.901,10.168,9.897,10.162,9.894,10.156,39.809,10.156,39.804,10.162,39.802,10.168,39.798,10.174,39.795,10.18" fill="#202020" xmlns="http://www.w3.org/2000/svg"/>
<polyline points="39.809,10.156,9.894,10.156,9.89,10.15,9.886,10.144,9.884,10.139,9.88,10.133,39.822,10.133,39.819,10.139,39.815,10.144,39.812,10.15,39.809,10.156" fill="#1F1F1F" xmlns="http://www.w3.org/2000/svg"/>
<polyline points="39.822,10.133,9.88,10.133,9.877,10.127,9.873,10.121,9.87,10.115,9.866,10.109,39.835,10.109,39.831,10.115,39.829,10.121,39.825,10.127,39.822,10.133" fill="#1E1E1E" xmlns="http://www.w3.org/2000/svg"/>
<polyline points="39.835,10.109,9.866,10.109,9.863,10.103,9.859,10.098,9.856,10.092,9.852,10.087,39.847,10.087,39.844,10.092,39.841,10.098,39.838,10.103,39.835,10.109" fill="#1E1E1E" xmlns="http://www.w3.org/2000/svg"/>
<polyline points="39.847,10.087,9.852,10.087,9.848,10.081,9.845,10.075,9.842,10.07,9.839,10.064,39.861,10.064,39.858,10.07,39.855,10.075,39.851,10.081,39.847,10.087" fill="#1D1D1D" xmlns="http://www.w3.org/2000/svg"/>
<polyline points="39.861,10.064,9.839,10.064,9.834,10.057,9.83,10.049,9.826,10.042,9.821,10.035,39.878,10.035,39.873,10.042,39.87,10.049,39.866,10.057,39.861,10.064" fill="#1C1C1C" xmlns="http://www.w3.org/2000/svg"/>
<polyline points="39.878,10.035,9.821,10.035,9.814,10.023,9.807,10.013,9.801,10.002,9.794,9.992,39.904,9.992,39.897,10.002,39.89,10.013,39.884,10.023,39.878,10.035" fill="#1B1B1B" xmlns="http://www.w3.org/2000/svg"/>
<polyline points="39.904,9.992,9.794,9.992,9.788,9.981,9.781,9.971,9.775,9.96,9.768,9.95,39.927,9.95,39.922,9.96,39.915,9.971,39.91,9.981,39.904,9.992" fill="#1B1B1B" xmlns="http://www.w3.org/2000/svg"/>
<polyline points="39.927,9.95,9.768,9.95,9.76,9.938,9.754,9.927,9.747,9.916,9.74,9.905,39.955,9.905,39.949,9.916,39.942,9.927,39.935,9.938,39.927,9.95" fill="#1A1A1A" xmlns="http://www.w3.org/2000/svg"/>
<path fill="#191919" xmlns="http://www.w3.org/2000/svg" d="M39.955,9.905L9.74,9.905C9.736,9.899,9.732,9.892,9.728,9.886C9.723,9.88,9.719,9.873,9.716,9.867S9.708,9.855,9.704,9.849C9.7,9.843,9.696,9.837,9.692,9.831l30.309,0c-0.004,0.006,-0.007,0.012,-0.011,0.018c-0.004,0.006,-0.008,0.012,-0.012,0.018c-0.005,0.006,-0.009,0.012,-0.013,0.019C39.962,9.893,39.958,9.899,39.955,9.905"/>
<path fill="#181818" xmlns="http://www.w3.org/2000/svg" d="M40,9.832L9.692,9.832C9.687,9.824,9.681,9.817,9.677,9.81c-0.005,-0.007,-0.01,-0.015,-0.015,-0.021c-0.005,-0.007,-0.01,-0.015,-0.015,-0.021C9.641,9.761,9.636,9.754,9.633,9.747l30.422,0c-0.005,0.007,-0.009,0.014,-0.014,0.021c-0.005,0.007,-0.009,0.014,-0.014,0.021c-0.005,0.007,-0.011,0.014,-0.015,0.021C40.01,9.817,40.005,9.824,40,9.832"/>
<path fill="#181818" xmlns="http://www.w3.org/2000/svg" d="M40.055,9.746L9.634,9.746C9.626,9.735,9.619,9.724,9.612,9.714C9.605,9.703,9.596,9.693,9.59,9.683c-0.008,-0.01,-0.015,-0.021,-0.021,-0.03s-0.015,-0.02,-0.021,-0.029l30.593,0c-0.007,0.009,-0.013,0.02,-0.021,0.029c-0.006,0.01,-0.014,0.02,-0.021,0.03c-0.007,0.01,-0.014,0.021,-0.021,0.031C40.071,9.724,40.063,9.734,40.055,9.746"/>
<path fill="#171717" xmlns="http://www.w3.org/2000/svg" d="M40.138,9.623L9.546,9.623C9.534,9.606,9.522,9.59,9.509,9.574C9.496,9.558,9.485,9.543,9.472,9.529C9.461,9.515,9.45,9.501,9.438,9.487C9.427,9.474,9.416,9.461,9.405,9.448l30.867,0C40.26,9.46,40.251,9.473,40.24,9.487s-0.021,0.028,-0.032,0.042c-0.012,0.015,-0.021,0.03,-0.034,0.045C40.162,9.589,40.151,9.606,40.138,9.623"/>
<path fill="#161616" xmlns="http://www.w3.org/2000/svg" d="M40.273,9.448L9.406,9.448C9.383,9.422,9.361,9.398,9.34,9.377c-0.021,-0.021,-0.041,-0.04,-0.06,-0.056C9.26,9.305,9.242,9.292,9.224,9.28C9.207,9.269,9.191,9.26,9.176,9.254l31.316,0c-0.015,0.006,-0.03,0.015,-0.047,0.026c-0.017,0.011,-0.033,0.025,-0.052,0.041c-0.02,0.017,-0.037,0.035,-0.059,0.056C40.316,9.398,40.294,9.422,40.273,9.448"/>
<polyline points="40.492,9.255,9.176,9.255,9.163,9.25,9.15,9.247,9.138,9.245,9.127,9.244,12.255,9.244,15.391,9.244,18.534,9.244,21.68,9.244,24.829,9.244,26.404,9.244,27.978,9.244,31.125,9.244,34.269,9.244,35.839,9.244,37.407,9.244,40.538,9.244,40.527,9.245,40.514,9.247,40.503,9.25,40.492,9.255" fill="#151515" xmlns="http://www.w3.org/2000/svg"/>
</g>
</g>
<g xmlns="http://www.w3.org/2000/svg">
<path fill="#212121" xmlns="http://www.w3.org/2000/svg" d="M39.699,10.357c0.687,1.017,1.41,2.089,2.129,3.155s1.432,2.124,2.099,3.112c0.667,0.988,1.287,1.907,1.817,2.693c0.531,0.787,0.973,1.441,1.283,1.901c-3.312,0,-6.857,0,-10.524,0c-3.666,0,-7.453,0,-11.246,0s-7.591,0,-11.28,0c-3.69,0,-7.271,0,-10.63,0c0.293,-0.478,0.703,-1.146,1.191,-1.942s1.055,-1.719,1.661,-2.708c0.605,-0.989,1.252,-2.042,1.899,-3.098c0.648,-1.056,1.299,-2.115,1.911,-3.114c2.376,0,4.822,0,7.305,0c2.481,0,5,0,7.52,0c2.521,0,5.041,0,7.529,0C34.852,10.357,37.309,10.357,39.699,10.357z"/>
</g>
<g xmlns="http://www.w3.org/2000/svg" enable-background="new    ">
<g xmlns="http://www.w3.org/2000/svg" enable-background="new    ">
<polyline points="10.01,10.357,3.346,21.219,3.344,21.22,3.341,21.222,3.338,21.224,3.335,21.225,10.006,10.351,10.007,10.352,10.008,10.354,10.009,10.355,10.01,10.357" fill="#535353" xmlns="http://www.w3.org/2000/svg"/>
<polyline points="10.006,10.351,3.335,21.225,3.332,21.227,3.329,21.229,3.325,21.231,3.321,21.233,10.002,10.343,10.003,10.345,10.004,10.347,10.005,10.349,10.006,10.351" fill="#4B4B4B" xmlns="http://www.w3.org/2000/svg"/>
<polyline points="10.002,10.343,3.321,21.233,3.318,21.235,3.314,21.237,3.311,21.239,3.306,21.241,9.997,10.335,9.998,10.337,9.999,10.339,10.001,10.341,10.002,10.343" fill="#404040" xmlns="http://www.w3.org/2000/svg"/>
<polyline points="9.997,10.335,3.306,21.241,3.303,21.243,3.3,21.245,3.297,21.247,3.293,21.248,9.993,10.328,9.994,10.33,9.995,10.331,9.996,10.333,9.997,10.335" fill="#262626" xmlns="http://www.w3.org/2000/svg"/>
<polyline points="9.993,10.328,3.293,21.248,3.289,21.251,3.286,21.253,3.283,21.255,3.279,21.257,9.989,10.32,9.99,10.322,9.991,10.324,9.992,10.326,9.993,10.328" fill="#252525" xmlns="http://www.w3.org/2000/svg"/>
<polyline points="9.989,10.32,3.279,21.257,3.275,21.259,3.272,21.261,3.268,21.263,3.264,21.265,9.984,10.312,9.985,10.314,9.986,10.316,9.988,10.318,9.989,10.32" fill="#242424" xmlns="http://www.w3.org/2000/svg"/>
<polyline points="9.984,10.312,3.264,21.265,3.261,21.267,3.258,21.269,3.254,21.27,3.251,21.272,9.98,10.304,9.981,10.306,9.982,10.308,9.983,10.31,9.984,10.312" fill="#242424" xmlns="http://www.w3.org/2000/svg"/>
<polyline points="9.98,10.304,3.251,21.272,3.247,21.274,3.244,21.276,3.241,21.279,3.237,21.281,9.974,10.296,9.976,10.298,9.977,10.3,9.979,10.302,9.98,10.304" fill="#232323" xmlns="http://www.w3.org/2000/svg"/>
<polyline points="9.974,10.296,3.237,21.281,3.233,21.283,3.23,21.285,3.226,21.287,3.222,21.289,9.97,10.289,9.971,10.29,9.972,10.292,9.974,10.294,9.974,10.296" fill="#222222" xmlns="http://www.w3.org/2000/svg"/>
<polyline points="9.97,10.289,3.222,21.289,3.219,21.29,3.216,21.292,3.212,21.294,3.209,21.297,9.967,10.281,9.968,10.283,9.969,10.285,9.969,10.287,9.97,10.289" fill="#212121" xmlns="http://www.w3.org/2000/svg"/>
<polyline points="9.967,10.281,3.209,21.297,3.205,21.299,3.202,21.301,3.199,21.303,3.195,21.305,9.962,10.273,9.963,10.275,9.964,10.277,9.966,10.279,9.967,10.281" fill="#212121" xmlns="http://www.w3.org/2000/svg"/>
<polyline points="9.962,10.273,3.195,21.305,3.191,21.307,3.188,21.309,3.184,21.31,3.18,21.312,9.958,10.266,9.959,10.268,9.96,10.269,9.961,10.271,9.962,10.273" fill="#202020" xmlns="http://www.w3.org/2000/svg"/>
<polyline points="9.958,10.266,3.18,21.312,3.177,21.314,3.174,21.316,3.17,21.319,3.167,21.321,9.954,10.258,9.955,10.26,9.955,10.262,9.957,10.264,9.958,10.266" fill="#1F1F1F" xmlns="http://www.w3.org/2000/svg"/>
<polyline points="9.954,10.258,3.167,21.321,3.163,21.323,3.16,21.325,3.157,21.327,3.153,21.329,9.949,10.25,9.95,10.252,9.952,10.254,9.953,10.256,9.954,10.258" fill="#1E1E1E" xmlns="http://www.w3.org/2000/svg"/>
<polyline points="9.949,10.25,3.153,21.329,3.15,21.331,3.146,21.333,3.141,21.335,3.138,21.337,9.945,10.243,9.946,10.245,9.947,10.247,9.948,10.248,9.949,10.25" fill="#1E1E1E" xmlns="http://www.w3.org/2000/svg"/>
<polyline points="9.945,10.243,3.138,21.337,3.135,21.339,3.132,21.341,3.129,21.343,3.125,21.345,9.94,10.235,9.942,10.237,9.943,10.239,9.944,10.241,9.945,10.243" fill="#1D1D1D" xmlns="http://www.w3.org/2000/svg"/>
<polyline points="9.94,10.235,3.125,21.345,3.121,21.347,3.119,21.349,3.115,21.351,3.111,21.353,9.936,10.228,9.937,10.23,9.938,10.232,9.939,10.234,9.94,10.235" fill="#1C1C1C" xmlns="http://www.w3.org/2000/svg"/>
<polyline points="9.936,10.228,3.111,21.353,3.108,21.355,3.104,21.357,3.101,21.359,3.097,21.361,9.931,10.221,9.932,10.223,9.934,10.225,9.935,10.226,9.936,10.228" fill="#1B1B1B" xmlns="http://www.w3.org/2000/svg"/>
<polyline points="9.931,10.221,3.097,21.361,3.094,21.363,3.091,21.365,3.087,21.367,3.083,21.369,9.927,10.213,9.928,10.215,9.929,10.217,9.93,10.219,9.931,10.221" fill="#1B1B1B" xmlns="http://www.w3.org/2000/svg"/>
<polyline points="9.927,10.213,3.083,21.369,3.08,21.371,3.077,21.373,3.073,21.375,3.07,21.377,9.923,10.206,9.924,10.207,9.925,10.209,9.927,10.211,9.927,10.213" fill="#1A1A1A" xmlns="http://www.w3.org/2000/svg"/>
<polyline points="9.923,10.206,3.07,21.377,3.066,21.379,3.063,21.381,3.059,21.383,3.055,21.385,9.919,10.198,9.92,10.2,9.921,10.202,9.922,10.204,9.923,10.206" fill="#191919" xmlns="http://www.w3.org/2000/svg"/>
<polyline points="9.919,10.198,3.055,21.385,3.043,21.393,3.031,21.4,3.018,21.407,3.006,21.415,9.903,10.172,9.907,10.178,9.911,10.185,9.915,10.192,9.919,10.198" fill="#181818" xmlns="http://www.w3.org/2000/svg"/>
<polyline points="9.903,10.172,3.006,21.415,2.992,21.423,2.978,21.431,2.964,21.439,2.951,21.448,9.885,10.143,9.89,10.15,9.895,10.157,9.899,10.164,9.903,10.172" fill="#181818" xmlns="http://www.w3.org/2000/svg"/>
<polyline points="9.885,10.143,2.951,21.448,2.937,21.456,2.923,21.464,2.91,21.473,2.896,21.48,9.869,10.114,9.873,10.121,9.877,10.128,9.882,10.136,9.885,10.143" fill="#171717" xmlns="http://www.w3.org/2000/svg"/>
<polyline points="9.869,10.114,2.896,21.48,2.882,21.489,2.869,21.497,2.855,21.505,2.841,21.514,9.852,10.086,9.856,10.093,9.861,10.1,9.865,10.107,9.869,10.114" fill="#161616" xmlns="http://www.w3.org/2000/svg"/>
<polyline points="9.852,10.086,2.841,21.514,2.828,21.522,2.814,21.53,2.801,21.539,2.787,21.547,9.835,10.058,9.839,10.065,9.844,10.072,9.847,10.079,9.852,10.086" fill="#151515" xmlns="http://www.w3.org/2000/svg"/>
<path fill="#151515" xmlns="http://www.w3.org/2000/svg" d="M9.835,10.058L2.787,21.547c-0.014,0.009,-0.028,0.017,-0.041,0.025c-0.014,0.009,-0.028,0.017,-0.041,0.026c-0.014,0.008,-0.027,0.017,-0.041,0.025c-0.014,0.009,-0.027,0.017,-0.041,0.026L9.785,9.976C9.789,9.983,9.793,9.99,9.798,9.997c0.004,0.007,0.008,0.014,0.014,0.021c0.004,0.007,0.008,0.014,0.013,0.021C9.827,10.044,9.831,10.051,9.835,10.058"/>
<path fill="#141414" xmlns="http://www.w3.org/2000/svg" d="M9.785,9.976L2.623,21.649c-0.295,0.187,-0.574,0.377,-0.833,0.567s-0.495,0.38,-0.707,0.564s-0.396,0.364,-0.552,0.533s-0.279,0.329,-0.369,0.475l0.435,-0.71l0.438,-0.712l0.438,-0.715l0.44,-0.718l0.442,-0.72l0.442,-0.722l0.444,-0.724l0.445,-0.725l0.445,-0.727l0.446,-0.728l0.447,-0.729l0.447,-0.729l0.448,-0.73l0.449,-0.731l0.448,-0.731l0.449,-0.731l0.447,-0.731l0.448,-0.73l0.448,-0.73L9.06,9.286C9.082,9.25,9.116,9.239,9.159,9.251C9.202,9.263,9.256,9.3,9.318,9.359C9.38,9.418,9.451,9.5,9.529,9.603C9.607,9.706,9.693,9.83,9.785,9.976"/>
</g>
</g>
<g xmlns="http://www.w3.org/2000/svg" enable-background="new    ">
<g xmlns="http://www.w3.org/2000/svg" enable-background="new    ">
<path fill="#535353" xmlns="http://www.w3.org/2000/svg" d="M47.027,21.219l-7.328,-10.861c0.002,-0.003,0.004,-0.007,0.005,-0.01c0.002,-0.003,0.004,-0.007,0.006,-0.01c0.001,-0.003,0.003,-0.006,0.005,-0.01c0.002,-0.003,0.003,-0.006,0.005,-0.009l7.38,10.939c-0.006,-0.003,-0.012,-0.007,-0.019,-0.01c-0.006,-0.003,-0.012,-0.007,-0.018,-0.01c-0.008,-0.003,-0.014,-0.007,-0.02,-0.01C47.038,21.225,47.033,21.222,47.027,21.219"/>
<path fill="#4B4B4B" xmlns="http://www.w3.org/2000/svg" d="M47.098,21.258l-7.38,-10.939c0.002,-0.004,0.005,-0.008,0.008,-0.012c0.002,-0.004,0.004,-0.008,0.007,-0.012c0.002,-0.004,0.004,-0.008,0.006,-0.012c0.003,-0.004,0.005,-0.008,0.007,-0.012l7.446,11.038c-0.008,-0.004,-0.017,-0.009,-0.023,-0.013c-0.008,-0.004,-0.015,-0.008,-0.021,-0.013c-0.008,-0.005,-0.017,-0.008,-0.023,-0.013C47.115,21.266,47.107,21.262,47.098,21.258"/>
<path fill="#404040" xmlns="http://www.w3.org/2000/svg" d="M47.192,21.308L39.746,10.27c0.002,-0.004,0.004,-0.008,0.007,-0.012c0.002,-0.004,0.004,-0.008,0.006,-0.012c0.003,-0.004,0.005,-0.008,0.007,-0.012c0.003,-0.004,0.005,-0.008,0.008,-0.012l7.512,11.136c-0.008,-0.004,-0.016,-0.008,-0.023,-0.013c-0.008,-0.004,-0.016,-0.008,-0.022,-0.013c-0.008,-0.004,-0.016,-0.008,-0.022,-0.012C47.207,21.316,47.2,21.312,47.192,21.308"/>
<path fill="#262626" xmlns="http://www.w3.org/2000/svg" d="M47.285,21.358l-7.513,-11.136c0.001,-0.003,0.003,-0.006,0.005,-0.009c0.001,-0.003,0.003,-0.006,0.005,-0.009s0.003,-0.006,0.005,-0.009s0.003,-0.006,0.005,-0.009l7.563,11.212c-0.007,-0.003,-0.013,-0.007,-0.019,-0.01s-0.012,-0.006,-0.018,-0.01c-0.006,-0.004,-0.013,-0.006,-0.019,-0.01S47.29,21.362,47.285,21.358"/>
<polyline points="47.355,21.398,39.791,10.186,39.794,10.181,39.798,10.175,39.801,10.169,39.803,10.163,47.402,21.424,47.389,21.418,47.378,21.411,47.367,21.405,47.355,21.398" fill="#252525" xmlns="http://www.w3.org/2000/svg"/>
<polyline points="47.402,21.424,39.803,10.163,39.807,10.157,39.811,10.151,39.815,10.145,39.818,10.14,47.449,21.451,47.437,21.444,47.425,21.437,47.413,21.431,47.402,21.424" fill="#242424" xmlns="http://www.w3.org/2000/svg"/>
<polyline points="47.449,21.451,39.818,10.14,39.821,10.134,39.824,10.128,39.828,10.123,39.83,10.117,47.495,21.477,47.483,21.471,47.471,21.464,47.46,21.457,47.449,21.451" fill="#242424" xmlns="http://www.w3.org/2000/svg"/>
<polyline points="47.495,21.477,39.83,10.117,39.833,10.111,39.837,10.105,39.84,10.1,39.843,10.094,47.54,21.504,47.53,21.497,47.518,21.49,47.506,21.484,47.495,21.477" fill="#232323" xmlns="http://www.w3.org/2000/svg"/>
<polyline points="47.54,21.504,39.843,10.094,39.846,10.089,39.849,10.083,39.853,10.078,39.857,10.072,47.586,21.53,47.576,21.523,47.564,21.517,47.552,21.51,47.54,21.504" fill="#222222" xmlns="http://www.w3.org/2000/svg"/>
<polyline points="47.586,21.53,39.857,10.072,39.86,10.066,39.863,10.061,39.866,10.055,39.87,10.05,47.632,21.557,47.621,21.55,47.61,21.543,47.597,21.537,47.586,21.53" fill="#212121" xmlns="http://www.w3.org/2000/svg"/>
<path fill="#212121" xmlns="http://www.w3.org/2000/svg" d="M47.632,21.557L39.869,10.05c0.001,-0.003,0.003,-0.006,0.005,-0.01c0.002,-0.003,0.004,-0.006,0.006,-0.009s0.004,-0.006,0.006,-0.009s0.003,-0.006,0.005,-0.01l7.82,11.592c-0.007,-0.004,-0.013,-0.008,-0.02,-0.012s-0.014,-0.008,-0.021,-0.012c-0.007,-0.004,-0.014,-0.008,-0.021,-0.012C47.646,21.564,47.638,21.56,47.632,21.557"/>
<path fill="#202020" xmlns="http://www.w3.org/2000/svg" d="M47.711,21.603l-7.82,-11.592c0.003,-0.003,0.005,-0.006,0.007,-0.009c0.002,-0.003,0.004,-0.006,0.006,-0.009s0.003,-0.006,0.005,-0.009s0.004,-0.006,0.006,-0.009l7.877,11.676c-0.006,-0.004,-0.013,-0.008,-0.02,-0.012c-0.007,-0.004,-0.014,-0.008,-0.021,-0.012c-0.007,-0.004,-0.014,-0.008,-0.02,-0.012C47.724,21.611,47.718,21.607,47.711,21.603"/>
<path fill="#1F1F1F" xmlns="http://www.w3.org/2000/svg" d="M47.79,21.651L39.913,9.975c0.002,-0.003,0.004,-0.006,0.006,-0.009s0.003,-0.006,0.005,-0.009c0.002,-0.003,0.004,-0.006,0.006,-0.009s0.005,-0.006,0.006,-0.009l7.935,11.76c-0.007,-0.004,-0.013,-0.008,-0.021,-0.012c-0.007,-0.004,-0.013,-0.008,-0.02,-0.012s-0.014,-0.008,-0.02,-0.012C47.803,21.659,47.797,21.655,47.79,21.651"/>
<path fill="#1E1E1E" xmlns="http://www.w3.org/2000/svg" d="M47.87,21.698l-7.935,-11.76c0.003,-0.004,0.005,-0.007,0.007,-0.011c0.002,-0.003,0.005,-0.007,0.007,-0.011c0.002,-0.004,0.004,-0.007,0.007,-0.011c0.002,-0.004,0.004,-0.007,0.006,-0.011l8.003,11.862c-0.008,-0.005,-0.016,-0.01,-0.022,-0.015s-0.017,-0.01,-0.023,-0.015c-0.007,-0.005,-0.016,-0.01,-0.023,-0.015C47.885,21.708,47.877,21.703,47.87,21.698"/>
<path fill="#1E1E1E" xmlns="http://www.w3.org/2000/svg" d="M47.964,21.757L39.961,9.894c0.004,-0.005,0.007,-0.01,0.01,-0.015c0.003,-0.005,0.007,-0.01,0.01,-0.015s0.006,-0.01,0.01,-0.015c0.003,-0.005,0.006,-0.01,0.009,-0.015l8.098,12.003c-0.011,-0.007,-0.021,-0.014,-0.031,-0.021c-0.013,-0.007,-0.022,-0.014,-0.033,-0.021c-0.011,-0.007,-0.021,-0.014,-0.033,-0.021C47.987,21.77,47.976,21.764,47.964,21.757"/>
<path fill="#1D1D1D" xmlns="http://www.w3.org/2000/svg" d="M48.095,21.839L39.998,9.836c0.003,-0.005,0.007,-0.01,0.01,-0.016s0.007,-0.01,0.011,-0.016c0.003,-0.005,0.007,-0.01,0.01,-0.015c0.003,-0.005,0.007,-0.01,0.01,-0.015l8.201,12.156c-0.012,-0.008,-0.023,-0.015,-0.035,-0.023c-0.013,-0.007,-0.024,-0.015,-0.036,-0.022c-0.012,-0.008,-0.022,-0.015,-0.035,-0.023C48.121,21.854,48.108,21.847,48.095,21.839"/>
<path fill="#1C1C1C" xmlns="http://www.w3.org/2000/svg" d="M48.239,21.93L40.038,9.774c0.005,-0.007,0.01,-0.014,0.014,-0.021c0.005,-0.007,0.011,-0.014,0.015,-0.021c0.005,-0.007,0.01,-0.014,0.014,-0.021c0.005,-0.006,0.009,-0.013,0.014,-0.02l8.346,12.37c-0.017,-0.011,-0.032,-0.022,-0.05,-0.033c-0.017,-0.011,-0.032,-0.021,-0.05,-0.032c-0.017,-0.011,-0.033,-0.022,-0.05,-0.033C48.272,21.951,48.255,21.94,48.239,21.93"/>
<path fill="#1B1B1B" xmlns="http://www.w3.org/2000/svg" d="M48.437,22.06L40.092,9.69c0.006,-0.009,0.014,-0.018,0.02,-0.027c0.006,-0.009,0.012,-0.018,0.018,-0.026c0.006,-0.009,0.013,-0.017,0.02,-0.025c0.006,-0.008,0.012,-0.017,0.018,-0.024l8.535,12.652c-0.021,-0.015,-0.043,-0.03,-0.064,-0.045c-0.021,-0.015,-0.043,-0.03,-0.064,-0.045c-0.021,-0.015,-0.044,-0.03,-0.065,-0.045C48.482,22.09,48.459,22.075,48.437,22.06"/>
<path fill="#1B1B1B" xmlns="http://www.w3.org/2000/svg" d="M48.7,22.24L40.165,9.588c0.009,-0.012,0.017,-0.024,0.025,-0.035c0.008,-0.011,0.017,-0.022,0.024,-0.033c0.009,-0.011,0.018,-0.021,0.024,-0.032s0.017,-0.02,0.023,-0.03l8.806,13.05c-0.03,-0.022,-0.061,-0.044,-0.09,-0.067c-0.03,-0.022,-0.062,-0.044,-0.092,-0.067c-0.03,-0.021,-0.062,-0.045,-0.094,-0.067C48.762,22.285,48.732,22.263,48.7,22.24"/>
<path fill="#1A1A1A" xmlns="http://www.w3.org/2000/svg" d="M49.069,22.509l-8.806,-13.05c0.014,-0.015,0.024,-0.029,0.036,-0.042c0.013,-0.013,0.023,-0.026,0.035,-0.038c0.011,-0.012,0.021,-0.023,0.032,-0.033c0.011,-0.01,0.021,-0.02,0.032,-0.029l9.178,13.604c-0.039,-0.034,-0.078,-0.067,-0.119,-0.102c-0.041,-0.034,-0.082,-0.068,-0.125,-0.103c-0.042,-0.034,-0.086,-0.069,-0.13,-0.103C49.16,22.579,49.115,22.544,49.069,22.509"/>
<path fill="#191919" xmlns="http://www.w3.org/2000/svg" d="M49.578,22.92L40.4,9.316c0.017,-0.014,0.031,-0.027,0.047,-0.037s0.029,-0.018,0.043,-0.024c0.014,-0.006,0.025,-0.009,0.038,-0.011c0.012,-0.002,0.021,0,0.032,0.003l9.646,14.3c-0.04,-0.048,-0.084,-0.098,-0.131,-0.149c-0.047,-0.051,-0.097,-0.102,-0.148,-0.155c-0.053,-0.052,-0.107,-0.105,-0.167,-0.16C49.702,23.028,49.64,22.976,49.578,22.92"/>
<path fill="#181818" xmlns="http://www.w3.org/2000/svg" d="M50.207,23.548l-9.646,-14.3c0.003,0.001,0.007,0.002,0.011,0.004c0.003,0.002,0.006,0.004,0.01,0.007c0.003,0.002,0.006,0.005,0.009,0.008c0.003,0.003,0.006,0.007,0.008,0.011l0.492,0.729l0.492,0.73l0.493,0.731l0.493,0.73l0.493,0.731l0.492,0.73l0.493,0.731l0.492,0.73l0.492,0.729l0.491,0.728l0.49,0.727l0.489,0.726l0.488,0.724l0.487,0.722l0.971,1.438l0.964,1.428l0.479,0.71l0.479,0.707c-0.012,-0.017,-0.023,-0.035,-0.036,-0.052c-0.013,-0.018,-0.025,-0.035,-0.039,-0.053s-0.027,-0.036,-0.042,-0.054S50.222,23.566,50.207,23.548"/>
</g>
</g>
<g xmlns="http://www.w3.org/2000/svg" enable-background="new    ">
<g xmlns="http://www.w3.org/2000/svg" enable-background="new    ">
<polyline points="3.346,21.219,47.027,21.219,47.029,21.22,47.032,21.222,47.035,21.223,47.037,21.225,3.336,21.225,3.339,21.223,3.341,21.222,3.344,21.22,3.346,21.219" fill="#535353" xmlns="http://www.w3.org/2000/svg"/>
<polyline points="3.336,21.225,47.037,21.225,47.04,21.226,47.043,21.228,47.047,21.23,47.05,21.232,3.323,21.232,3.327,21.23,3.33,21.228,3.333,21.226,3.336,21.225" fill="#4B4B4B" xmlns="http://www.w3.org/2000/svg"/>
<polyline points="3.323,21.232,47.05,21.232,47.053,21.233,47.057,21.235,47.061,21.237,47.065,21.239,3.31,21.239,3.313,21.237,3.317,21.235,3.32,21.233,3.323,21.232" fill="#404040" xmlns="http://www.w3.org/2000/svg"/>
<polyline points="3.31,21.239,47.065,21.239,47.068,21.241,47.072,21.243,47.075,21.245,47.079,21.247,3.297,21.247,3.3,21.245,3.303,21.243,3.306,21.241,3.31,21.239" fill="#262626" xmlns="http://www.w3.org/2000/svg"/>
<polyline points="3.297,21.247,47.079,21.247,47.081,21.248,47.085,21.25,47.088,21.252,47.092,21.254,3.284,21.254,3.288,21.252,3.29,21.25,3.294,21.248,3.297,21.247" fill="#252525" xmlns="http://www.w3.org/2000/svg"/>
<polyline points="3.284,21.254,47.092,21.254,47.094,21.256,47.098,21.257,47.102,21.259,47.106,21.261,3.271,21.261,3.274,21.259,3.278,21.257,3.281,21.256,3.284,21.254" fill="#242424" xmlns="http://www.w3.org/2000/svg"/>
<polyline points="3.271,21.261,47.106,21.261,47.109,21.263,47.113,21.265,47.116,21.267,47.12,21.269,3.258,21.269,3.26,21.267,3.264,21.265,3.268,21.263,3.271,21.261" fill="#242424" xmlns="http://www.w3.org/2000/svg"/>
<polyline points="3.258,21.269,47.12,21.269,47.122,21.27,47.126,21.272,47.129,21.274,47.133,21.276,3.245,21.276,3.248,21.274,3.251,21.272,3.255,21.27,3.258,21.269" fill="#232323" xmlns="http://www.w3.org/2000/svg"/>
<polyline points="3.245,21.276,47.133,21.276,47.135,21.278,47.139,21.28,47.143,21.281,47.147,21.283,3.232,21.283,3.235,21.281,3.239,21.28,3.242,21.278,3.245,21.276" fill="#222222" xmlns="http://www.w3.org/2000/svg"/>
<polyline points="3.232,21.283,47.147,21.283,47.15,21.285,47.154,21.287,47.157,21.289,47.161,21.291,3.219,21.291,3.221,21.289,3.224,21.287,3.229,21.285,3.232,21.283" fill="#212121" xmlns="http://www.w3.org/2000/svg"/>
<polyline points="3.219,21.291,47.161,21.291,47.163,21.292,47.167,21.294,47.17,21.296,47.174,21.298,3.206,21.298,3.209,21.296,3.213,21.294,3.216,21.292,3.219,21.291" fill="#212121" xmlns="http://www.w3.org/2000/svg"/>
<polyline points="3.206,21.298,47.174,21.298,47.177,21.3,47.18,21.302,47.184,21.304,47.188,21.306,3.193,21.306,3.196,21.304,3.2,21.302,3.203,21.3,3.206,21.298" fill="#202020" xmlns="http://www.w3.org/2000/svg"/>
<polyline points="3.193,21.306,47.188,21.306,47.191,21.308,47.195,21.31,47.198,21.311,47.202,21.313,3.179,21.313,3.184,21.311,3.187,21.31,3.19,21.308,3.193,21.306" fill="#1F1F1F" xmlns="http://www.w3.org/2000/svg"/>
<polyline points="3.179,21.313,47.202,21.313,47.205,21.315,47.208,21.317,47.211,21.318,47.214,21.32,3.167,21.32,3.17,21.318,3.174,21.317,3.177,21.315,3.179,21.313" fill="#1E1E1E" xmlns="http://www.w3.org/2000/svg"/>
<polyline points="3.167,21.32,47.214,21.32,47.218,21.322,47.221,21.324,47.224,21.326,47.228,21.328,3.155,21.328,3.158,21.326,3.161,21.324,3.164,21.322,3.167,21.32" fill="#1E1E1E" xmlns="http://www.w3.org/2000/svg"/>
<polyline points="3.155,21.328,47.228,21.328,47.232,21.33,47.235,21.331,47.239,21.333,47.242,21.335,3.141,21.335,3.145,21.333,3.148,21.331,3.151,21.33,3.155,21.328" fill="#1D1D1D" xmlns="http://www.w3.org/2000/svg"/>
<polyline points="3.141,21.335,47.242,21.335,47.246,21.337,47.248,21.339,47.252,21.341,47.255,21.343,3.129,21.343,3.132,21.341,3.135,21.339,3.137,21.337,3.141,21.335" fill="#1C1C1C" xmlns="http://www.w3.org/2000/svg"/>
<polyline points="3.129,21.343,47.255,21.343,47.259,21.345,47.261,21.347,47.265,21.349,47.269,21.35,3.116,21.35,3.119,21.349,3.122,21.347,3.125,21.345,3.129,21.343" fill="#1B1B1B" xmlns="http://www.w3.org/2000/svg"/>
<polyline points="3.116,21.35,47.269,21.35,47.273,21.352,47.276,21.354,47.279,21.356,47.283,21.358,3.103,21.358,3.106,21.356,3.109,21.354,3.113,21.352,3.116,21.35" fill="#1B1B1B" xmlns="http://www.w3.org/2000/svg"/>
<polyline points="3.103,21.358,47.283,21.358,47.286,21.359,47.289,21.361,47.292,21.363,47.296,21.365,3.09,21.365,3.093,21.363,3.096,21.361,3.099,21.359,3.103,21.358" fill="#1A1A1A" xmlns="http://www.w3.org/2000/svg"/>
<polyline points="3.09,21.365,47.296,21.365,47.299,21.367,47.302,21.369,47.305,21.371,47.31,21.373,3.078,21.373,3.08,21.371,3.084,21.369,3.087,21.367,3.09,21.365" fill="#191919" xmlns="http://www.w3.org/2000/svg"/>
<polyline points="3.078,21.373,47.31,21.373,47.313,21.374,47.316,21.376,47.32,21.378,47.323,21.38,3.064,21.38,3.068,21.378,3.071,21.376,3.074,21.374,3.078,21.373" fill="#181818" xmlns="http://www.w3.org/2000/svg"/>
<polyline points="3.064,21.38,47.323,21.38,47.33,21.384,47.335,21.387,47.341,21.39,47.346,21.394,3.042,21.394,3.047,21.39,3.052,21.387,3.059,21.384,3.064,21.38" fill="#181818" xmlns="http://www.w3.org/2000/svg"/>
<path fill="#171717" xmlns="http://www.w3.org/2000/svg" d="M3.042,21.394l44.305,0c0.007,0.003,0.013,0.006,0.018,0.01c0.006,0.003,0.012,0.006,0.018,0.009c0.005,0.003,0.012,0.006,0.018,0.01c0.006,0.003,0.011,0.006,0.017,0.009L2.977,21.432c0.005,-0.003,0.011,-0.006,0.016,-0.009s0.011,-0.006,0.016,-0.01c0.005,-0.003,0.012,-0.006,0.017,-0.009C3.031,21.4,3.037,21.397,3.042,21.394"/>
<path fill="#161616" xmlns="http://www.w3.org/2000/svg" d="M2.977,21.432l44.437,0c0.006,0.003,0.012,0.006,0.017,0.01c0.007,0.003,0.013,0.006,0.019,0.009c0.005,0.003,0.01,0.006,0.016,0.009c0.006,0.003,0.012,0.006,0.018,0.009L2.913,21.469c0.005,-0.003,0.011,-0.006,0.016,-0.009c0.006,-0.003,0.012,-0.006,0.017,-0.01c0.005,-0.003,0.011,-0.006,0.016,-0.009C2.967,21.438,2.971,21.435,2.977,21.432"/>
<path fill="#151515" xmlns="http://www.w3.org/2000/svg" d="M2.913,21.47l44.568,0c0.006,0.003,0.011,0.006,0.017,0.01c0.006,0.003,0.012,0.006,0.017,0.01c0.007,0.003,0.013,0.006,0.018,0.009c0.006,0.003,0.012,0.006,0.017,0.01L2.849,21.509c0.006,-0.003,0.011,-0.006,0.017,-0.01c0.005,-0.003,0.011,-0.006,0.016,-0.009s0.01,-0.007,0.017,-0.01C2.903,21.476,2.909,21.473,2.913,21.47"/>
<path fill="#151515" xmlns="http://www.w3.org/2000/svg" d="M2.849,21.508l44.698,0c0.006,0.003,0.013,0.006,0.018,0.009c0.006,0.003,0.012,0.007,0.017,0.01c0.006,0.003,0.012,0.006,0.017,0.01c0.007,0.003,0.013,0.006,0.018,0.01L2.788,21.547c0.005,-0.003,0.01,-0.006,0.016,-0.01c0.006,-0.003,0.011,-0.006,0.017,-0.01c0.005,-0.003,0.011,-0.006,0.016,-0.009C2.84,21.515,2.844,21.511,2.849,21.508"/>
<path fill="#141414" xmlns="http://www.w3.org/2000/svg" d="M2.788,21.547l44.827,0c0.445,0.259,0.857,0.528,1.228,0.794c0.368,0.266,0.69,0.529,0.954,0.776s0.467,0.479,0.599,0.682c0.131,0.203,0.188,0.378,0.158,0.514L0.007,24.313c-0.027,-0.135,0.025,-0.311,0.148,-0.514c0.123,-0.204,0.314,-0.435,0.563,-0.682s0.556,-0.51,0.904,-0.776C1.972,22.075,2.365,21.806,2.788,21.547"/>
</g>
</g>
</g>
</g>
</g>
<ellipse fill="#DFDFDF" cx="25.014" cy="15.211" xmlns="http://www.w3.org/2000/svg" rx="17.54" ry="7.316"/>
<g xmlns="http://www.w3.org/2000/svg">
<g xmlns="http://www.w3.org/2000/svg">
<g xmlns="http://www.w3.org/2000/svg" enable-background="new    ">
<g xmlns="http://www.w3.org/2000/svg">
<path fill="#7A0000" xmlns="http://www.w3.org/2000/svg" d="M25.312,3.817c8.973,0,16.244,2.349,16.244,5.255c0,2.897,-7.271,5.247,-16.244,5.247c-8.965,0,-16.236,-2.349,-16.236,-5.247C9.076,6.166,16.347,3.817,25.312,3.817z"/>
</g>
<g xmlns="http://www.w3.org/2000/svg" enable-background="new    ">
<g xmlns="http://www.w3.org/2000/svg" enable-background="new    ">
<path fill="#510000" xmlns="http://www.w3.org/2000/svg" d="M41.556,9.072l0,6.981c0,0.081,-0.006,0.161,-0.017,0.24L41.539,9.312C41.551,9.233,41.556,9.153,41.556,9.072"/>
<path fill="#4E0000" xmlns="http://www.w3.org/2000/svg" d="M41.54,9.313l0,6.981c-0.014,0.1,-0.037,0.199,-0.067,0.297L41.473,9.61C41.503,9.512,41.527,9.413,41.54,9.313"/>
<path fill="#4C0000" xmlns="http://www.w3.org/2000/svg" d="M41.472,9.61l0,6.981c-0.037,0.121,-0.089,0.241,-0.151,0.359L41.321,9.969C41.384,9.851,41.435,9.731,41.472,9.61"/>
<path fill="#490000" xmlns="http://www.w3.org/2000/svg" d="M41.321,9.969l0,6.981c-1.317,2.47,-7.983,4.35,-16.009,4.35c-8.965,0,-16.236,-2.349,-16.236,-5.246L9.076,9.073c0,2.897,7.271,5.247,16.236,5.247C33.337,14.319,40.003,12.439,41.321,9.969"/>
</g>
</g>
</g>
</g>
</g>
<g xmlns="http://www.w3.org/2000/svg">
<ellipse fill="#CC1414" cx="25.296" cy="9.64" xmlns="http://www.w3.org/2000/svg" rx="16.158" ry="6.638"/>
<g xmlns="http://www.w3.org/2000/svg">
<g xmlns="http://www.w3.org/2000/svg">
<path fill="#CC1414" xmlns="http://www.w3.org/2000/svg" d="M25.295,0c8.971,-0.001,16.07,5.72,16.159,9.386c0.089,3.667,-7.007,3.832,-16.159,3.833c-9.149,0.002,-16.247,-0.166,-16.158,-3.833C9.226,5.72,16.327,0.001,25.295,0z"/>
</g>
</g>
</g>
</g>
</g></g><g partID='76780'><g transform='translate(3.28925,74.3255)' ><g  id="breadboard">
 <g >
  <circle  id="connector0pin" fill="none" cx="6.048" cy="27.533" r="1.735"/>
  <circle  id="connector1pin" fill="none" cx="13.248" cy="27.533" r="1.735"/>
  <circle  id="connector6pin" fill="none" cx="49.248" cy="27.533" r="1.735"/>
  <circle  id="connector7pin" fill="none" cx="56.448" cy="27.533" r="1.735"/>
  <circle  id="connector2pin" fill="none" cx="20.448" cy="27.533" r="1.735"/>
  <circle  id="connector3pin" fill="none" cx="27.648" cy="27.533" r="1.735"/>
  <circle  id="connector5pin" fill="none" cx="42.048" cy="27.533" r="1.735"/>
  <circle  id="connector4pin" fill="none" cx="34.848" cy="27.533" r="1.735"/>
  <circle  id="connector8pin" fill="none" cx="56.448" cy="5.932" r="1.735"/>
  <circle  id="connector9pin" fill="none" cx="49.248" cy="5.932" r="1.735"/>
  <circle  id="connector10pin" fill="none" cx="42.048" cy="5.932" r="1.735"/>
  <circle  id="connector11pin" fill="none" cx="34.848" cy="5.932" r="1.735"/>
  <circle  id="connector12pin" fill="none" cx="27.648" cy="5.932" r="1.735"/>
  <circle  id="connector13pin" fill="none" cx="20.448" cy="5.932" r="1.735"/>
  <circle  id="connector14pin" fill="none" cx="13.248" cy="5.932" r="1.735"/>
  <circle  id="connector15pin" fill="none" cx="6.048" cy="5.932" r="1.735"/>
 </g>
 <g >
  <g >
   <g >
    <path  fill="#999999" d="M57.275,24.438L55.62,24.438l0,3.625c0,0,0.5,0.639,0.827,0.639c0.328,0,0.828,-0.639,0.828,-0.639L57.275,24.438L57.275,24.438z"/>
    <path  fill="#808080" d="M56.447,28.699c0.328,0,0.828,-0.637,0.828,-0.637l0,-3.625"/>
    <path  fill="#B3B3B3" d="M56.794,24.438l-0.688,0l0,3.625c0,0,0.207,0.639,0.345,0.639c0.137,0,0.346,-0.639,0.346,-0.639L56.794,24.438L56.794,24.438z"/>
   </g>
  </g>
  <g >
   <g >
    <path  fill="#999999" d="M50.076,24.438L48.42,24.438l0,3.625c0,0,0.5,0.639,0.827,0.639c0.328,0,0.829,-0.639,0.829,-0.639L50.076,24.438L50.076,24.438z"/>
    <path  fill="#808080" d="M49.247,28.699c0.328,0,0.829,-0.637,0.829,-0.637l0,-3.625"/>
    <path  fill="#B3B3B3" d="M49.594,24.438l-0.689,0l0,3.625c0,0,0.209,0.639,0.346,0.639s0.346,-0.639,0.346,-0.639L49.594,24.438L49.594,24.438z"/>
   </g>
  </g>
  <g >
   <g >
    <path  fill="#999999" d="M42.876,24.438l-1.655,0l0,3.625c0,0,0.5,0.639,0.826,0.639c0.328,0,0.829,-0.639,0.829,-0.639L42.876,24.438L42.876,24.438z"/>
    <path  fill="#808080" d="M42.047,28.699c0.328,0,0.829,-0.637,0.829,-0.637l0,-3.625"/>
    <path  fill="#B3B3B3" d="M42.395,24.438l-0.689,0l0,3.625c0,0,0.208,0.639,0.345,0.639c0.138,0,0.347,-0.639,0.347,-0.639L42.395,24.438L42.395,24.438z"/>
   </g>
  </g>
  <g >
   <g >
    <path  fill="#999999" d="M35.676,24.438L34.02,24.438l0,3.625c0,0,0.5,0.639,0.828,0.639c0.327,0,0.828,-0.639,0.828,-0.639L35.676,24.438L35.676,24.438z"/>
    <path  fill="#808080" d="M34.848,28.699c0.327,0,0.828,-0.637,0.828,-0.637l0,-3.625"/>
    <path  fill="#B3B3B3" d="M35.193,24.438l-0.689,0l0,3.625c0,0,0.208,0.639,0.346,0.639c0.137,0,0.346,-0.639,0.346,-0.639L35.193,24.438L35.193,24.438z"/>
   </g>
  </g>
  <g >
   <g >
    <path  fill="#999999" d="M28.476,24.438L26.82,24.438l0,3.625c0,0,0.5,0.639,0.827,0.639c0.328,0,0.829,-0.639,0.829,-0.639L28.476,24.438L28.476,24.438z"/>
    <path  fill="#808080" d="M27.646,28.699c0.328,0,0.829,-0.637,0.829,-0.637l0,-3.625"/>
    <path  fill="#B3B3B3" d="M27.994,24.438l-0.69,0l0,3.625c0,0,0.208,0.639,0.345,0.639c0.137,0,0.346,-0.639,0.346,-0.639L27.994,24.438L27.994,24.438z"/>
   </g>
  </g>
  <g >
   <g >
    <path  fill="#999999" d="M21.275,24.438L19.62,24.438l0,3.625c0,0,0.5,0.639,0.827,0.639c0.328,0,0.829,-0.639,0.829,-0.639L21.275,24.438L21.275,24.438z"/>
    <path  fill="#808080" d="M20.446,28.699c0.328,0,0.829,-0.637,0.829,-0.637l0,-3.625"/>
    <path  fill="#B3B3B3" d="M20.793,24.438l-0.69,0l0,3.625c0,0,0.208,0.639,0.345,0.639c0.137,0,0.346,-0.639,0.346,-0.639L20.793,24.438L20.793,24.438z"/>
   </g>
  </g>
  <g >
   <g >
    <path  fill="#999999" d="M14.075,24.438l-1.656,0l0,3.625c0,0,0.5,0.639,0.827,0.639c0.328,0,0.829,-0.639,0.829,-0.639L14.075,24.438L14.075,24.438z"/>
    <path  fill="#808080" d="M13.246,28.699c0.328,0,0.829,-0.637,0.829,-0.637l0,-3.625"/>
    <path  fill="#B3B3B3" d="M13.593,24.438l-0.69,0l0,3.625c0,0,0.208,0.639,0.345,0.639c0.137,0,0.346,-0.639,0.346,-0.639L13.593,24.438L13.593,24.438z"/>
   </g>
  </g>
  <g >
   <g >
    <path  fill="#999999" d="M6.875,24.438L5.219,24.438l0,3.625c0,0,0.5,0.639,0.827,0.639c0.328,0,0.829,-0.639,0.829,-0.639L6.875,24.438L6.875,24.438z"/>
    <path  fill="#808080" d="M6.046,28.699c0.328,0,0.829,-0.637,0.829,-0.637l0,-3.625"/>
    <path  fill="#B3B3B3" d="M6.393,24.438l-0.69,0l0,3.625c0,0,0.208,0.639,0.345,0.639c0.137,0,0.346,-0.639,0.346,-0.639L6.393,24.438L6.393,24.438z"/>
   </g>
  </g>
 </g>
 <rect  width="62.352" y="0" height="21.795" fill="#0071BC"/>
 <rect  width="62.352" y="21.795" height="5.063" fill="#07466F"/>
 <rect  width="1.728" y="6.412" height="9.361" fill="#07466F"/>
 <rect  width="1.728" y="9.865" height="5.909" fill="#333333"/>
 <rect  width="1.729" x="60.623" y="6.412" height="9.361" fill="#07466F"/>
 <rect  width="1.729" x="60.623" y="9.865" height="5.909" fill="#333333"/>
 <g transform="matrix(1, 0, 0, 1, 5.2183, 4.7419)">
  <text  font-family="'OCRA'" fill="#FFFFFF" font-size="5.2111">ON</text>
 </g>
 <g transform="matrix(1, 0, 0, 1, 50.6875, 4.7419)">
  <text  font-family="'OCRA'" fill="#FFFFFF" font-size="5.2111">DIP</text>
 </g>
 <g  enable-background="new    ">
  <g >
   <g transform="matrix(1, 0, 0, 1, 54.7813, 20.616)">
    <text  font-family="'OCRA'" fill="#FFFFFF" font-size="5.2111">8</text>
   </g>
  </g>
  <g >
   <g transform="matrix(1, 0, 0, 1, 47.5811, 20.616)">
    <text  font-family="'OCRA'" fill="#FFFFFF" font-size="5.2111">7</text>
   </g>
  </g>
  <g >
   <g transform="matrix(1, 0, 0, 1, 40.3809, 20.616)">
    <text  font-family="'OCRA'" fill="#FFFFFF" font-size="5.2111">6</text>
   </g>
  </g>
  <g >
   <g transform="matrix(1, 0, 0, 1, 33.1807, 20.616)">
    <text  font-family="'OCRA'" fill="#FFFFFF" font-size="5.2111">5</text>
   </g>
  </g>
  <g >
   <g transform="matrix(1, 0, 0, 1, 25.9805, 20.616)">
    <text  font-family="'OCRA'" fill="#FFFFFF" font-size="5.2111">4</text>
   </g>
  </g>
  <g >
   <g transform="matrix(1, 0, 0, 1, 18.7803, 20.616)">
    <text  font-family="'OCRA'" fill="#FFFFFF" font-size="5.2111">3</text>
   </g>
  </g>
  <g >
   <g transform="matrix(1, 0, 0, 1, 11.5801, 20.616)">
    <text  font-family="'OCRA'" fill="#FFFFFF" font-size="5.2111">2</text>
   </g>
  </g>
  <g >
   <g transform="matrix(1, 0, 0, 1, 4.3799, 20.616)">
    <text  font-family="'OCRA'" fill="#FFFFFF" font-size="5.2111">1</text>
   </g>
  </g>
 </g>
 <g transform="matrix(1, 0, 0, 1, 7.9546, 20.616)">
  <text  font-family="'OCRA'" fill="#FFFFFF" font-size="5.2111"/>
 </g>
 <rect  width="0.288" y="15.774" height="6.021" fill="#FFFFFF" opacity="0.2" enable-background="new    "/>
 <rect  width="0.288" y="21.795" height="5.041" fill="#FFFFFF" opacity="0.2" enable-background="new    "/>
 <rect  width="0.289" x="62.063" y="0" height="6.412" opacity="0.2" enable-background="new    "/>
 <rect  width="0.289" x="62.063" y="6.412" height="3.452" opacity="0.2" enable-background="new    "/>
 <rect  width="0.289" x="62.063" y="21.795" height="5.063" opacity="0.2" enable-background="new    "/>
 <rect  width="57.016" x="5.047" y="26.571" height="0.287" opacity="0.2" enable-background="new    "/>
 <rect  width="0.289" x="62.063" y="16.733" height="5.063" opacity="0.2" enable-background="new    "/>
 <rect  width="51.883" x="10.179" y="21.506" height="0.289" opacity="0.2" enable-background="new    "/>
 <rect  width="0.288" y="0.001" height="5.063" fill="#FFFFFF" opacity="0.2" enable-background="new    "/>
 <rect  width="54" x="0.288" y="0.001" height="0.288" fill="#FFFFFF" opacity="0.2" enable-background="new    "/>
 <rect  width="0.288" x="0.013" y="6.412" height="3.452" opacity="0.2" enable-background="new    "/>
 <g >
  <g >
   <rect  width="4.32" x="54.289" y="5.498" height="10.802" fill="#E6E6E6"/>
   <rect  width="2.16" x="55.371" y="6.795" height="8.751" fill="#CCCCCC"/>
   <rect  width="0.174" x="55.197" y="6.795" height="8.751" fill="#FFFFFF" opacity="0.2" enable-background="new    "/>
   <rect  width="2.16" x="55.371" y="6.795" height="0.221" fill="#B3B3B3"/>
   <rect  width="2.881" x="55.01" y="10.85" height="4.729" fill="#B3B3B3"/>
   <rect  width="2.881" x="55.01" y="10.85" height="1.128" fill="#F2F2F2"/>
   <rect  width="2.881" x="55.01" y="12.254" height="1.524" fill="#F2F2F2"/>
   <rect  width="4.32" x="54.291" y="5.498" height="0.714" fill="#07466F"/>
   <rect  width="0.198" x="54.091" y="5.498" height="10.802" fill="#FFFFFF" opacity="0.2" enable-background="new    "/>
   <rect  width="0.193" x="57.695" y="13.983" height="1.596" opacity="0.2" enable-background="new    "/>
   <rect  width="1.594" x="56.102" y="15.384" height="0.194" opacity="0.2" enable-background="new    "/>
   <rect  width="0.193" x="57.695" y="12.447" height="1.331" opacity="0.11" enable-background="new    "/>
   <rect  width="1.594" x="56.102" y="13.583" height="0.194" opacity="0.11" enable-background="new    "/>
   <rect  width="0.193" x="55.002" y="12.254" height="1.33" fill="#FFFFFF"/>
   <rect  width="1.594" x="55.197" y="12.253" height="0.194" fill="#FFFFFF"/>
   <rect  width="0.193" x="57.695" y="10.837" height="1.143" opacity="0.11" enable-background="new    "/>
   <rect  width="1.594" x="56.102" y="11.783" height="0.193" opacity="0.11" enable-background="new    "/>
   <rect  width="0.193" x="55.002" y="10.85" height="1.105" fill="#FFFFFF"/>
   <rect  width="1.594" x="55.197" y="10.899" height="0.192" fill="#FFFFFF"/>
  </g>
  <g >
   <rect  width="4.32" x="47.089" y="5.498" height="10.802" fill="#E6E6E6"/>
   <rect  width="2.16" x="48.171" y="6.795" height="8.751" fill="#CCCCCC"/>
   <rect  width="0.174" x="47.997" y="6.795" height="8.751" fill="#FFFFFF" opacity="0.2" enable-background="new    "/>
   <rect  width="2.16" x="48.171" y="6.795" height="0.221" fill="#B3B3B3"/>
   <rect  width="4.32" x="47.091" y="5.498" height="0.714" fill="#07466F"/>
   <rect  width="0.198" x="46.891" y="5.498" height="10.802" fill="#FFFFFF" opacity="0.2" enable-background="new    "/>
   <g >
    <rect  width="2.879" x="47.811" y="5.614" height="4.729" fill="#B3B3B3"/>
    <rect  width="2.879" x="47.811" y="5.614" height="1.128" fill="#F2F2F2"/>
    <rect  width="2.879" x="47.811" y="7.017" height="1.523" fill="#F2F2F2"/>
    <rect  width="0.194" x="50.495" y="8.747" height="1.597" opacity="0.2" enable-background="new    "/>
    <rect  width="1.595" x="48.9" y="10.147" height="0.193" opacity="0.2" enable-background="new    "/>
    <rect  width="0.194" x="50.495" y="7.211" height="1.331" opacity="0.11" enable-background="new    "/>
    <rect  width="1.595" x="48.9" y="8.346" height="0.193" opacity="0.11" enable-background="new    "/>
    <rect  width="0.193" x="47.802" y="7.017" height="1.33" fill="#FFFFFF"/>
    <rect  width="1.594" x="47.997" y="7.016" height="0.193" fill="#FFFFFF"/>
    <rect  width="0.194" x="50.495" y="5.6" height="1.142" opacity="0.11" enable-background="new    "/>
    <rect  width="1.595" x="48.9" y="6.547" height="0.193" opacity="0.11" enable-background="new    "/>
    <rect  width="0.193" x="47.802" y="5.614" height="1.106" fill="#FFFFFF"/>
    <rect  width="1.594" x="47.997" y="5.663" height="0.193" fill="#FFFFFF"/>
   </g>
  </g>
  <g >
   <rect  width="4.32" x="39.889" y="5.498" height="10.802" fill="#E6E6E6"/>
   <rect  width="2.16" x="40.971" y="6.795" height="8.751" fill="#CCCCCC"/>
   <rect  width="0.174" x="40.797" y="6.795" height="8.751" fill="#FFFFFF" opacity="0.2" enable-background="new    "/>
   <rect  width="2.16" x="40.971" y="6.795" height="0.221" fill="#B3B3B3"/>
   <rect  width="2.879" x="40.609" y="10.85" height="4.729" fill="#B3B3B3"/>
   <rect  width="2.879" x="40.609" y="10.85" height="1.128" fill="#F2F2F2"/>
   <rect  width="2.879" x="40.609" y="12.254" height="1.524" fill="#F2F2F2"/>
   <rect  width="4.32" x="39.891" y="5.498" height="0.714" fill="#07466F"/>
   <rect  width="0.199" x="39.689" y="5.498" height="10.802" fill="#FFFFFF" opacity="0.2" enable-background="new    "/>
   <rect  width="0.193" x="43.295" y="13.983" height="1.596" opacity="0.2" enable-background="new    "/>
   <rect  width="1.594" x="41.701" y="15.384" height="0.194" opacity="0.2" enable-background="new    "/>
   <rect  width="0.193" x="43.295" y="12.447" height="1.331" opacity="0.11" enable-background="new    "/>
   <rect  width="1.594" x="41.701" y="13.583" height="0.194" opacity="0.11" enable-background="new    "/>
   <rect  width="0.193" x="40.602" y="12.254" height="1.33" fill="#FFFFFF"/>
   <rect  width="1.594" x="40.797" y="12.253" height="0.194" fill="#FFFFFF"/>
   <rect  width="0.193" x="43.295" y="10.837" height="1.143" opacity="0.11" enable-background="new    "/>
   <rect  width="1.594" x="41.701" y="11.783" height="0.193" opacity="0.11" enable-background="new    "/>
   <rect  width="0.193" x="40.602" y="10.85" height="1.105" fill="#FFFFFF"/>
   <rect  width="1.594" x="40.797" y="10.899" height="0.192" fill="#FFFFFF"/>
  </g>
  <g >
   <rect  width="4.32" x="32.688" y="5.498" height="10.802" fill="#E6E6E6"/>
   <rect  width="2.16" x="33.771" y="6.795" height="8.751" fill="#CCCCCC"/>
   <rect  width="0.174" x="33.598" y="6.795" height="8.751" fill="#FFFFFF" opacity="0.2" enable-background="new    "/>
   <rect  width="2.16" x="33.771" y="6.795" height="0.221" fill="#B3B3B3"/>
   <rect  width="2.88" x="33.409" y="10.85" height="4.729" fill="#B3B3B3"/>
   <rect  width="2.88" x="33.409" y="10.85" height="1.128" fill="#F2F2F2"/>
   <rect  width="2.88" x="33.409" y="12.254" height="1.524" fill="#F2F2F2"/>
   <rect  width="4.32" x="32.689" y="5.498" height="0.714" fill="#07466F"/>
   <rect  width="0.197" x="32.49" y="5.498" height="10.802" fill="#FFFFFF" opacity="0.2" enable-background="new    "/>
   <rect  width="0.193" x="36.096" y="13.983" height="1.596" opacity="0.2" enable-background="new    "/>
   <rect  width="1.595" x="34.501" y="15.384" height="0.194" opacity="0.2" enable-background="new    "/>
   <rect  width="0.193" x="36.096" y="12.447" height="1.331" opacity="0.11" enable-background="new    "/>
   <rect  width="1.595" x="34.501" y="13.583" height="0.194" opacity="0.11" enable-background="new    "/>
   <rect  width="0.193" x="33.4" y="12.254" height="1.33" fill="#FFFFFF"/>
   <rect  width="1.594" x="33.598" y="12.253" height="0.194" fill="#FFFFFF"/>
   <rect  width="0.193" x="36.096" y="10.837" height="1.143" opacity="0.11" enable-background="new    "/>
   <rect  width="1.595" x="34.501" y="11.783" height="0.193" opacity="0.11" enable-background="new    "/>
   <rect  width="0.193" x="33.4" y="10.85" height="1.105" fill="#FFFFFF"/>
   <rect  width="1.594" x="33.598" y="10.899" height="0.192" fill="#FFFFFF"/>
  </g>
  <g >
   <rect  width="4.32" x="25.489" y="5.498" height="10.802" fill="#E6E6E6"/>
   <rect  width="2.16" x="26.571" y="6.795" height="8.751" fill="#CCCCCC"/>
   <rect  width="0.174" x="26.397" y="6.795" height="8.751" fill="#FFFFFF" opacity="0.2" enable-background="new    "/>
   <rect  width="2.16" x="26.571" y="6.795" height="0.221" fill="#B3B3B3"/>
   <rect  width="4.32" x="25.491" y="5.498" height="0.714" fill="#07466F"/>
   <rect  width="0.198" x="25.291" y="5.498" height="10.802" fill="#FFFFFF" opacity="0.2" enable-background="new    "/>
   <g >
    <rect  width="2.88" x="26.209" y="5.607" height="4.729" fill="#B3B3B3"/>
    <rect  width="2.88" x="26.209" y="5.607" height="1.128" fill="#F2F2F2"/>
    <rect  width="2.88" x="26.209" y="7.01" height="1.523" fill="#F2F2F2"/>
    <rect  width="0.194" x="28.895" y="8.74" height="1.596" opacity="0.2" enable-background="new    "/>
    <rect  width="1.594" x="27.301" y="10.14" height="0.193" opacity="0.2" enable-background="new    "/>
    <rect  width="0.194" x="28.895" y="7.204" height="1.331" opacity="0.11" enable-background="new    "/>
    <rect  width="1.594" x="27.301" y="8.34" height="0.194" opacity="0.11" enable-background="new    "/>
    <rect  width="0.193" x="26.202" y="7.01" height="1.329" fill="#FFFFFF"/>
    <rect  width="1.594" x="26.397" y="7.01" height="0.193" fill="#FFFFFF"/>
    <rect  width="0.194" x="28.895" y="5.594" height="1.142" opacity="0.11" enable-background="new    "/>
    <rect  width="1.594" x="27.301" y="6.54" height="0.193" opacity="0.11" enable-background="new    "/>
    <rect  width="0.193" x="26.202" y="5.607" height="1.105" fill="#FFFFFF"/>
    <rect  width="1.594" x="26.397" y="5.656" height="0.193" fill="#FFFFFF"/>
   </g>
  </g>
  <g >
   <rect  width="4.32" x="18.289" y="5.498" height="10.802" fill="#E6E6E6"/>
   <rect  width="2.16" x="19.371" y="6.795" height="8.751" fill="#CCCCCC"/>
   <rect  width="0.174" x="19.197" y="6.795" height="8.751" fill="#FFFFFF" opacity="0.2" enable-background="new    "/>
   <rect  width="2.16" x="19.371" y="6.795" height="0.221" fill="#B3B3B3"/>
   <rect  width="2.88" x="19.009" y="10.85" height="4.729" fill="#B3B3B3"/>
   <rect  width="2.88" x="19.009" y="10.85" height="1.128" fill="#F2F2F2"/>
   <rect  width="2.88" x="19.009" y="12.254" height="1.524" fill="#F2F2F2"/>
   <rect  width="4.32" x="18.291" y="5.498" height="0.714" fill="#07466F"/>
   <rect  width="0.198" x="18.09" y="5.498" height="10.802" fill="#FFFFFF" opacity="0.2" enable-background="new    "/>
   <rect  width="0.194" x="21.695" y="13.983" height="1.596" opacity="0.2" enable-background="new    "/>
   <rect  width="1.594" x="20.101" y="15.384" height="0.194" opacity="0.2" enable-background="new    "/>
   <rect  width="0.194" x="21.695" y="12.447" height="1.331" opacity="0.11" enable-background="new    "/>
   <rect  width="1.594" x="20.101" y="13.583" height="0.194" opacity="0.11" enable-background="new    "/>
   <rect  width="0.193" x="19.001" y="12.254" height="1.33" fill="#FFFFFF"/>
   <rect  width="1.594" x="19.197" y="12.253" height="0.194" fill="#FFFFFF"/>
   <rect  width="0.194" x="21.695" y="10.837" height="1.143" opacity="0.11" enable-background="new    "/>
   <rect  width="1.594" x="20.101" y="11.783" height="0.193" opacity="0.11" enable-background="new    "/>
   <rect  width="0.193" x="19.001" y="10.85" height="1.105" fill="#FFFFFF"/>
   <rect  width="1.594" x="19.197" y="10.899" height="0.192" fill="#FFFFFF"/>
  </g>
  <g >
   <rect  width="4.32" x="11.088" y="5.498" height="10.802" fill="#E6E6E6"/>
   <rect  width="2.16" x="12.17" y="6.795" height="8.751" fill="#CCCCCC"/>
   <rect  width="0.174" x="11.997" y="6.795" height="8.751" fill="#FFFFFF" opacity="0.2" enable-background="new    "/>
   <rect  width="2.16" x="12.17" y="6.795" height="0.221" fill="#B3B3B3"/>
   <rect  width="4.32" x="11.09" y="5.498" height="0.714" fill="#07466F"/>
   <rect  width="0.198" x="10.89" y="5.498" height="10.802" fill="#FFFFFF" opacity="0.2" enable-background="new    "/>
   <g >
    <rect  width="2.88" x="11.809" y="5.6" height="4.729" fill="#B3B3B3"/>
    <rect  width="2.88" x="11.809" y="5.6" height="1.128" fill="#F2F2F2"/>
    <rect  width="2.88" x="11.809" y="7.004" height="1.524" fill="#F2F2F2"/>
    <rect  width="0.194" x="14.495" y="8.733" height="1.596" opacity="0.2" enable-background="new    "/>
    <rect  width="1.594" x="12.901" y="10.134" height="0.194" opacity="0.2" enable-background="new    "/>
    <rect  width="0.194" x="14.495" y="7.197" height="1.331" opacity="0.11" enable-background="new    "/>
    <rect  width="1.594" x="12.901" y="8.333" height="0.194" opacity="0.11" enable-background="new    "/>
    <rect  width="0.193" x="11.801" y="7.004" height="1.33" fill="#FFFFFF"/>
    <rect  width="1.594" x="11.997" y="7.003" height="0.194" fill="#FFFFFF"/>
    <rect  width="0.194" x="14.495" y="5.587" height="1.143" opacity="0.11" enable-background="new    "/>
    <rect  width="1.594" x="12.901" y="6.533" height="0.193" opacity="0.11" enable-background="new    "/>
    <rect  width="0.193" x="11.801" y="5.6" height="1.105" fill="#FFFFFF"/>
    <rect  width="1.594" x="11.997" y="5.649" height="0.192" fill="#FFFFFF"/>
   </g>
  </g>
  <g >
   <rect  width="4.32" x="3.888" y="5.498" height="10.802" fill="#E6E6E6"/>
   <rect  width="2.16" x="4.97" y="6.795" height="8.751" fill="#CCCCCC"/>
   <rect  width="0.174" x="4.796" y="6.795" height="8.751" fill="#FFFFFF" opacity="0.2" enable-background="new    "/>
   <rect  width="2.16" x="4.97" y="6.795" height="0.221" fill="#B3B3B3"/>
   <rect  width="2.88" x="4.609" y="10.85" height="4.729" fill="#B3B3B3"/>
   <rect  width="2.88" x="4.609" y="10.85" height="1.128" fill="#F2F2F2"/>
   <rect  width="2.88" x="4.609" y="12.254" height="1.524" fill="#F2F2F2"/>
   <rect  width="4.32" x="3.89" y="5.498" height="0.714" fill="#07466F"/>
   <rect  width="0.198" x="3.69" y="5.498" height="10.802" fill="#FFFFFF" opacity="0.2" enable-background="new    "/>
   <rect  width="0.194" x="7.294" y="13.983" height="1.596" opacity="0.2" enable-background="new    "/>
   <rect  width="1.594" x="5.701" y="15.384" height="0.194" opacity="0.2" enable-background="new    "/>
   <rect  width="0.194" x="7.294" y="12.447" height="1.331" opacity="0.11" enable-background="new    "/>
   <rect  width="1.594" x="5.701" y="13.583" height="0.194" opacity="0.11" enable-background="new    "/>
   <rect  width="0.193" x="4.601" y="12.254" height="1.33" fill="#FFFFFF"/>
   <rect  width="1.594" x="4.796" y="12.253" height="0.194" fill="#FFFFFF"/>
   <rect  width="0.194" x="7.294" y="10.837" height="1.143" opacity="0.11" enable-background="new    "/>
   <rect  width="1.594" x="5.701" y="11.783" height="0.193" opacity="0.11" enable-background="new    "/>
   <rect  width="0.193" x="4.601" y="10.85" height="1.105" fill="#FFFFFF"/>
   <rect  width="1.594" x="4.796" y="10.899" height="0.192" fill="#FFFFFF"/>
  </g>
 </g>
</g>
</g></g><g partID='76830'><g transform='translate(45.4534,14.2881)' ><g xmlns="http://www.w3.org/2000/svg" id="breadboard">
 <polygon xmlns="http://www.w3.org/2000/svg" id="wefwf" points="0,2.369,23.615,2.369,23.615,4.757,0,4.757" fill="#8C8C8C"/>
 <path xmlns="http://www.w3.org/2000/svg" id="path21_8_" fill="#474747" d="M4.46929,7.111c-0.789462,0,-0.811419,-0.271,-0.811419,-0.625L3.65788,2.669c-0.00199611,-0.349,0.257498,-0.63,1.04696,-0.63l14.365,0c0.797447,0,1.06093,0.283,1.06093,0.645L20.1308,6.49c0.00598834,0.354,-0.270473,0.622,-1.06093,0.622L4.46929,7.111L4.46929,7.111z"/>
 <path xmlns="http://www.w3.org/2000/svg" id="path21_7_" fill="#666666" d="M4.46929,6.021c-0.789462,0,-0.811419,-0.281,-0.811419,-0.624L3.65788,0.641c-0.000998056,-0.345,0.258496,-0.625,1.04796,-0.625l14.364,0c0.799443,0,1.06093,0.283,1.06093,0.624l0,4.756c0.00598834,0.344,-0.270473,0.622,-1.06093,0.622L4.46929,6.021L4.46929,6.021z"/>
 <g xmlns="http://www.w3.org/2000/svg">
  <ellipse xmlns="http://www.w3.org/2000/svg" cx="5.35657" cy="3.011" rx="0.644744" ry="0.487"/>
  <ellipse xmlns="http://www.w3.org/2000/svg" cx="18.3812" cy="3.011" rx="0.643746" ry="0.487"/>
 </g>
 <path xmlns="http://www.w3.org/2000/svg" id="path21_10_" stroke-width="0.399222" fill="none" d="M16.6556,1.765l0,2.881c0.00199611,0.256,-0.257498,0.572,-0.842359,0.572L7.9575,5.218c-0.586857,0,-0.829384,-0.314,-0.831381,-0.572L7.12612,1.765" stroke="#333333"/>
 <path xmlns="http://www.w3.org/2000/svg" id="path21_6_" fill="#C4C4C4" d="M8.11419,5.085c-0.592845,0,-0.830383,-0.211,-0.833377,-0.479L7.28082,1.633c0,-0.254,0.193623,-0.468,0.78048,-0.468l7.66307,0c0.590849,0,0.783474,0.229,0.78547,0.479l0,2.977C16.5158,4.892,16.2543,5.1,15.6655,5.1L8.11419,5.085L8.11419,5.085z"/>
 <path xmlns="http://www.w3.org/2000/svg" id="path21_5_" fill="#EDEDED" d="M8.11419,4.251c-0.592845,0,-0.830383,-0.21,-0.833377,-0.479L7.28082,1.014c0,-0.255,0.193623,-0.464,0.78048,-0.464l7.66307,0c0.590849,0,0.783474,0.209,0.78547,0.464l0,2.768c0.00399222,0.271,-0.255502,0.479,-0.844355,0.479L8.11419,4.251L8.11419,4.251z"/>
</g>
</g></g><g partID='78040'><g transform='translate(101.904,76.1969)' ><g xmlns="http://www.w3.org/2000/svg" id="breadboard">
 <rect xmlns="http://www.w3.org/2000/svg" id="connector5pin" width="1.452" x="0.028" y="0.001" height="1.507" fill="none"/>
 <rect xmlns="http://www.w3.org/2000/svg" id="connector5terminal" width="1.452" x="0.028" y="0.001" height="0.272" fill="none"/>
 <rect xmlns="http://www.w3.org/2000/svg" id="connector4pin" width="1.454" x="7.038" y="0.001" height="1.507" fill="none"/>
 <rect xmlns="http://www.w3.org/2000/svg" id="connector4terminal" width="1.453" x="7.038" y="0.001" height="0.272" fill="none"/>
 <rect xmlns="http://www.w3.org/2000/svg" id="connector3pin" width="1.453" x="35.848" y="0.001" height="1.506" fill="none"/>
 <rect xmlns="http://www.w3.org/2000/svg" id="connector3terminal" width="1.453" x="35.848" y="0.001" height="0.272" fill="none"/>
 <rect xmlns="http://www.w3.org/2000/svg" id="connector0pin" width="1.453" x="0.028" y="21.532" height="1.506" fill="none"/>
 <rect xmlns="http://www.w3.org/2000/svg" id="connector0terminal" width="1.453" x="0.028" y="22.766" height="0.271" fill="none"/>
 <rect xmlns="http://www.w3.org/2000/svg" id="connector1pin" width="1.452" x="7.038" y="21.532" height="1.506" fill="none"/>
 <rect xmlns="http://www.w3.org/2000/svg" id="connector1terminal" width="1.452" x="7.038" y="22.766" height="0.271" fill="none"/>
 <rect xmlns="http://www.w3.org/2000/svg" id="connector2pin" width="1.453" x="35.848" y="21.532" height="1.506" fill="none"/>
 <rect xmlns="http://www.w3.org/2000/svg" id="connector2terminal" width="1.453" x="35.848" y="22.766" height="0.271" fill="none"/>
 <rect xmlns="http://www.w3.org/2000/svg" width="37.328" x="0.008" y="0.705" height="21.627" fill="#2D2D2D"/>
 <line xmlns="http://www.w3.org/2000/svg" stroke-width="0.6551" y1="2.897" fill="none" y2="22.204" x1="36.578" x2="36.578" stroke="#606060"/>
 <path xmlns="http://www.w3.org/2000/svg" stroke-width="0.75" fill="none" d="M0.755,2.898L0.755,6.7c0,0.64,0.523,1.164,1.164,1.164l3.255,0" stroke="#606060"/>
 <polygon xmlns="http://www.w3.org/2000/svg" points="4.616,8.945,4.969,8.17,2.01,8.17,2.365,8.945" fill="#B23820"/>
 <polygon xmlns="http://www.w3.org/2000/svg" points="4.956,13.408,5.15,12.579,2.248,13.163,2.749,13.852" fill="#B23820"/>
 <polygon xmlns="http://www.w3.org/2000/svg" points="2.318,11.721,2.123,12.55,5.025,11.966,4.524,11.278" fill="#B23820"/>
 <path xmlns="http://www.w3.org/2000/svg" stroke-width="0.75" fill="none" d="M0.755,22.284l0,-6.237c0,-0.641,0.523,-1.163,1.164,-1.163l3.255,0" stroke="#606060"/>
 <polygon xmlns="http://www.w3.org/2000/svg" points="4.616,13.802,4.969,14.577,2.01,14.577,2.365,13.802" fill="#B23820"/>
 <rect xmlns="http://www.w3.org/2000/svg" width="1.51" y="21.528" height="1.51" fill="#8C8C8C"/>
 <rect xmlns="http://www.w3.org/2000/svg" width="1.51" x="35.828" y="21.528" height="1.51" fill="#8C8C8C"/>
 <line xmlns="http://www.w3.org/2000/svg" stroke-width="0.75" y1="11.275" fill="none" y2="11.275" x1="12.854" x2="36.535" stroke="#606060"/>
 <line xmlns="http://www.w3.org/2000/svg" stroke-width="0.75" y1="11.279" fill="none" y2="11.279" x1="13.353" x2="23.85" stroke="#494949"/>
 <path xmlns="http://www.w3.org/2000/svg" stroke-width="0.75" fill="none" stroke-linecap="round" d="M22.521,14.292c0.921,0.607,-6.856,0.787,-7.891,0.683" stroke="#752119"/>
 <path xmlns="http://www.w3.org/2000/svg" stroke-width="0.75" fill="none" stroke-linecap="round" d="M22.521,15.135c0.933,0.611,-6.871,0.78,-7.891,0.682" stroke="#752119"/>
 <path xmlns="http://www.w3.org/2000/svg" stroke-width="0.75" fill="none" stroke-linecap="round" d="M22.521,15.979c0.922,0.602,-6.86,0.782,-7.891,0.678" stroke="#752119"/>
 <path xmlns="http://www.w3.org/2000/svg" stroke-width="0.75" fill="none" stroke-linecap="round" d="M22.521,16.821c0.521,0.34,-2.353,0.962,-7.891,0.962" stroke="#752119"/>
 <path xmlns="http://www.w3.org/2000/svg" stroke-width="0.75" fill="none" stroke-linecap="round" d="M22.521,10.923c0.921,0.606,-6.854,0.785,-7.891,0.682" stroke="#752119"/>
 <path xmlns="http://www.w3.org/2000/svg" stroke-width="0.75" fill="none" stroke-linecap="round" d="M22.521,11.766c0.93,0.608,-6.868,0.778,-7.891,0.68" stroke="#752119"/>
 <path xmlns="http://www.w3.org/2000/svg" stroke-width="0.75" fill="none" stroke-linecap="round" d="M22.521,12.608c0.925,0.603,-6.86,0.785,-7.891,0.681" stroke="#752119"/>
 <path xmlns="http://www.w3.org/2000/svg" stroke-width="0.75" fill="none" stroke-linecap="round" d="M22.521,13.45c0.916,0.601,-6.845,0.789,-7.891,0.681" stroke="#752119"/>
 <path xmlns="http://www.w3.org/2000/svg" stroke-width="0.75" fill="none" stroke-linecap="round" d="M22.521,7.553c0.911,0.603,-6.845,0.789,-7.891,0.682" stroke="#752119"/>
 <path xmlns="http://www.w3.org/2000/svg" stroke-width="0.75" fill="none" stroke-linecap="round" d="M22.521,8.396C23.442,9,15.667,9.182,14.63,9.079" stroke="#752119"/>
 <path xmlns="http://www.w3.org/2000/svg" stroke-width="0.75" fill="none" stroke-linecap="round" d="M22.521,9.239c0.929,0.606,-6.867,0.782,-7.891,0.679" stroke="#752119"/>
 <path xmlns="http://www.w3.org/2000/svg" stroke-width="0.75" fill="none" stroke-linecap="round" d="M22.521,10.081c0.931,0.611,-6.877,0.782,-7.891,0.682" stroke="#752119"/>
 <path xmlns="http://www.w3.org/2000/svg" stroke-width="0.75" fill="none" stroke-linecap="round" d="M22.379,5.87c0.924,0.604,-6.72,0.781,-7.75,0.679" stroke="#752119"/>
 <path xmlns="http://www.w3.org/2000/svg" stroke-width="0.75" fill="none" stroke-linecap="round" d="M22.521,6.711c0.933,0.61,-6.871,0.778,-7.891,0.679" stroke="#752119"/>
 <path xmlns="http://www.w3.org/2000/svg" stroke-width="0.75" fill="none" stroke-linecap="round" d="M14.63,6.572c2.514,-0.527,5.224,-0.594,7.967,0.25" stroke="#B23820"/>
 <path xmlns="http://www.w3.org/2000/svg" stroke-width="0.75" fill="none" stroke-linecap="round" d="M14.63,7.411c2.514,-0.527,5.224,-0.594,7.967,0.25" stroke="#B23820"/>
 <path xmlns="http://www.w3.org/2000/svg" stroke-width="0.75" fill="none" stroke-linecap="round" d="M14.63,8.25c2.514,-0.528,5.224,-0.594,7.967,0.25" stroke="#B23820"/>
 <path xmlns="http://www.w3.org/2000/svg" stroke-width="0.75" fill="none" stroke-linecap="round" d="M14.63,9.088c2.514,-0.528,5.224,-0.595,7.967,0.25" stroke="#B23820"/>
 <path xmlns="http://www.w3.org/2000/svg" stroke-width="0.75" fill="none" stroke-linecap="round" d="M14.63,9.928c2.514,-0.528,5.224,-0.595,7.967,0.249" stroke="#B23820"/>
 <path xmlns="http://www.w3.org/2000/svg" stroke-width="0.75" fill="none" stroke-linecap="round" d="M14.63,10.768c2.514,-0.528,5.224,-0.595,7.967,0.249" stroke="#B23820"/>
 <path xmlns="http://www.w3.org/2000/svg" stroke-width="0.75" fill="none" stroke-linecap="round" d="M14.63,11.607c2.514,-0.528,5.224,-0.595,7.967,0.249" stroke="#B23820"/>
 <path xmlns="http://www.w3.org/2000/svg" stroke-width="0.75" fill="none" stroke-linecap="round" d="M14.63,12.447c2.514,-0.528,5.224,-0.595,7.967,0.249" stroke="#B23820"/>
 <path xmlns="http://www.w3.org/2000/svg" stroke-width="0.75" fill="none" stroke-linecap="round" d="M14.63,13.285c2.514,-0.528,5.224,-0.595,7.967,0.249" stroke="#B23820"/>
 <path xmlns="http://www.w3.org/2000/svg" stroke-width="0.75" fill="none" stroke-linecap="round" d="M14.63,14.124c2.514,-0.527,5.224,-0.594,7.967,0.25" stroke="#B23820"/>
 <path xmlns="http://www.w3.org/2000/svg" stroke-width="0.75" fill="none" stroke-linecap="round" d="M14.63,14.963c2.514,-0.527,5.224,-0.595,7.967,0.249" stroke="#B23820"/>
 <path xmlns="http://www.w3.org/2000/svg" stroke-width="0.75" fill="none" stroke-linecap="round" d="M14.63,15.803c2.514,-0.527,5.224,-0.595,7.967,0.249" stroke="#B23820"/>
 <path xmlns="http://www.w3.org/2000/svg" stroke-width="0.75" fill="none" stroke-linecap="round" d="M14.63,16.655c2.514,-0.527,5.224,-0.595,7.967,0.249" stroke="#B23820"/>
 <path xmlns="http://www.w3.org/2000/svg" stroke-width="0.75" fill="none" stroke-linecap="round" d="M14.63,5.315c3.955,0,5.637,-0.087,7.923,0.622" stroke="#B23820"/>
 <path xmlns="http://www.w3.org/2000/svg" stroke-width="0.7311" fill="none" stroke-linecap="round" d="M7.812,22.284l0,-3.312c0,-0.641,0.523,-1.164,1.164,-1.164l5.653,0" stroke="#752119"/>
 <line xmlns="http://www.w3.org/2000/svg" stroke-width="0.6551" y1="1.169" fill="none" stroke-linecap="round" y2="2.898" x1="36.579" x2="36.578" stroke="#606060"/>
 <line xmlns="http://www.w3.org/2000/svg" stroke-width="0.75" y1="1.169" fill="none" stroke-linecap="round" y2="2.898" x1="0.756" x2="0.755" stroke="#606060"/>
 <path xmlns="http://www.w3.org/2000/svg" stroke-width="0.75" fill="none" stroke-linecap="round" d="M7.812,1.169l0,2.982c0,0.64,0.523,1.164,1.164,1.164l5.653,0" stroke="#B23820"/>
 <line xmlns="http://www.w3.org/2000/svg" stroke-width="0.75" y1="12.887" fill="none" y2="11.275" x1="2.08" x2="10.786" stroke="#7C7C7C"/>
 <path xmlns="http://www.w3.org/2000/svg" fill="#333333" d="M11.672,12.452c-0.649,0,-1.178,-0.529,-1.178,-1.178c0,-0.649,0.528,-1.177,1.178,-1.177s1.178,0.528,1.178,1.177C12.851,11.923,12.322,12.452,11.672,12.452L11.672,12.452z"/>
 <path xmlns="http://www.w3.org/2000/svg" fill="#606060" d="M11.672,10.389c0.489,0,0.887,0.396,0.887,0.886c0,0.488,-0.398,0.886,-0.887,0.886s-0.887,-0.396,-0.887,-0.886S11.184,10.389,11.672,10.389M11.672,9.807c-0.811,0,-1.469,0.657,-1.469,1.468c0,0.811,0.657,1.468,1.469,1.468s1.469,-0.657,1.469,-1.468C13.142,10.464,12.484,9.807,11.672,9.807L11.672,9.807z"/>
 <rect xmlns="http://www.w3.org/2000/svg" width="1.51" x="6.999" y="21.528" height="1.51" fill="#8C8C8C"/>
 <rect xmlns="http://www.w3.org/2000/svg" width="1.51" height="1.51" fill="#8C8C8C"/>
 <rect xmlns="http://www.w3.org/2000/svg" width="1.51" x="35.828" height="1.51" fill="#8C8C8C"/>
 <rect xmlns="http://www.w3.org/2000/svg" width="1.51" x="6.999" height="1.51" fill="#8C8C8C"/>
</g>
</g></g></svg>